<svg version="1.1" viewBox="0.0 0.0 960.0 540.0" fill="none" stroke="none" stroke-linecap="square" stroke-miterlimit="10" xmlns:xlink="http://www.w3.org/1999/xlink" xmlns="http://www.w3.org/2000/svg"><clipPath id="g1c810400299_0_116.0"><path d="m0 0l960.0 0l0 540.0l-960.0 0l0 -540.0z" clip-rule="nonzero"/></clipPath><g clip-path="url(#g1c810400299_0_116.0)"><path fill="#ffffff" d="m0 0l960.0 0l0 540.0l-960.0 0z" fill-rule="evenodd"/><path fill="#ffffff" d="m315.00052 337.31046l0 0c0 6.916687 15.090179 12.954926 36.66928 14.672913l0 -6.0590515l12.118103 12.592834l-12.118103 11.643402l0 -6.0590515l0 0c-21.579102 -1.7180176 -36.66928 -7.756256 -36.66928 -14.672943z" fill-rule="evenodd"/><path fill="#cbcbcb" d="m363.7879 334.2809l0 0c-19.398926 0 -36.954803 3.56839 -44.714386 9.088593l0 0c-6.582733 -4.6829834 -5.117859 -10.08078 3.895935 -14.355774c9.013794 -4.2749634 24.361603 -6.8509216 40.81845 -6.8509216z" fill-rule="evenodd"/><path fill="#000000" fill-opacity="0.0" d="m315.00052 337.31046l0 0c0 6.916687 15.090179 12.954926 36.66928 14.672913l0 -6.0590515l12.118103 12.592834l-12.118103 11.643402l0 -6.0590515l0 0c-21.579102 -1.7180176 -36.66928 -7.756256 -36.66928 -14.672943l0 -12.118103l0 0c0 -8.365814 21.842865 -15.147644 48.787384 -15.147644l0 12.118103l0 0c-19.398926 0 -36.954803 3.56839 -44.714386 9.088593" fill-rule="evenodd"/><path stroke="#000000" stroke-width="1.0" stroke-linejoin="round" stroke-linecap="butt" d="m315.00052 337.31046l0 0c0 6.916687 15.090179 12.954926 36.66928 14.672913l0 -6.0590515l12.118103 12.592834l-12.118103 11.643402l0 -6.0590515l0 0c-21.579102 -1.7180176 -36.66928 -7.756256 -36.66928 -14.672943l0 -12.118103l0 0c0 -8.365814 21.842865 -15.147644 48.787384 -15.147644l0 12.118103l0 0c-19.398926 0 -36.954803 3.56839 -44.714386 9.088593" fill-rule="evenodd"/><path fill="#000000" fill-opacity="0.0" d="m238.22858 32.602364l38.456696 0l0 43.622047l-38.456696 0z" fill-rule="evenodd"/><path fill="#000000" d="m261.58795 60.80236l-3.140625 0l-1.25 -3.25l-5.71875 0l-1.1875 3.25l-3.0625 0l5.578125 -14.3125l3.0625 0l5.71875 14.3125zm-5.3125 -5.671875l-1.96875 -5.3125l-1.9375 5.3125l3.90625 0z" fill-rule="nonzero"/><path fill="#000000" fill-opacity="0.0" d="m193.60233 207.21538l127.71652 0l0 38.771652l-127.71652 0z" fill-rule="evenodd"/><path fill="#000000" d="m207.3992 226.07538l0 3.890625l2.28125 0q0.578125 0 0.8125 0.234375q0.25 0.21875 0.25 0.578125q0 0.34375 -0.25 0.578125q-0.234375 0.21875 -0.8125 0.21875l-4.84375 0q-0.578125 0 -0.828125 -0.21875q-0.234375 -0.234375 -0.234375 -0.59375q0 -0.34375 0.234375 -0.5625q0.25 -0.234375 0.828125 -0.234375l0.953125 0l0 -3.890625l-0.765625 0q-0.578125 0 -0.828125 -0.21875q-0.234375 -0.21875 -0.234375 -0.578125q0 -0.359375 0.234375 -0.578125q0.25 -0.21875 0.828125 -0.21875l0.765625 0l0 -0.609375q0 -1.046875 0.78125 -1.734375q0.796875 -0.703125 2.28125 -0.703125q0.671875 0 1.53125 0.125q0.875 0.125 1.125 0.34375q0.25 0.21875 0.25 0.5625q0 0.359375 -0.21875 0.59375q-0.21875 0.234375 -0.546875 0.234375q-0.140625 0 -0.4375 -0.0625q-1.0 -0.1875 -1.765625 -0.1875q-0.796875 0 -1.09375 0.234375q-0.296875 0.234375 -0.296875 0.59375l0 0.609375l2.46875 0q0.578125 0 0.8125 0.21875q0.25 0.21875 0.25 0.578125q0 0.359375 -0.25 0.578125q-0.234375 0.21875 -0.8125 0.21875l-2.46875 0zm13.7734375 2.078125q0 0.921875 -0.515625 1.796875q-0.515625 0.859375 -1.53125 1.375q-1.0 0.515625 -2.109375 0.515625q-1.09375 0 -2.09375 -0.5q-1.0 -0.515625 -1.53125 -1.375q-0.515625 -0.875 -0.515625 -1.828125q0 -0.953125 0.53125 -1.875q0.53125 -0.9375 1.53125 -1.46875q1.0 -0.53125 2.078125 -0.53125q1.09375 0 2.109375 0.546875q1.015625 0.546875 1.53125 1.46875q0.515625 0.90625 0.515625 1.875zm-1.609375 0.015625q0 -0.78125 -0.546875 -1.421875q-0.765625 -0.875 -2.0 -0.875q-1.078125 0 -1.8125 0.703125q-0.71875 0.6875 -0.71875 1.59375q0 0.75 0.734375 1.40625q0.734375 0.65625 1.796875 0.65625q1.078125 0 1.8125 -0.65625q0.734375 -0.65625 0.734375 -1.40625zm6.7109375 -3.6875l0 1.0q1.015625 -0.734375 1.59375 -0.96875q0.578125 -0.25 1.09375 -0.25q0.78125 0 1.515625 0.578125q0.5 0.390625 0.5 0.796875q0 0.34375 -0.25 0.59375q-0.234375 0.234375 -0.5625 0.234375q-0.296875 0 -0.625 -0.296875q-0.328125 -0.296875 -0.59375 -0.296875q-0.328125 0 -1.0 0.421875q-0.671875 0.421875 -1.671875 1.265625l0 2.40625l2.28125 0q0.578125 0 0.828125 0.234375q0.25 0.21875 0.25 0.578125q0 0.34375 -0.25 0.578125q-0.25 0.21875 -0.828125 0.21875l-4.828125 0q-0.578125 0 -0.828125 -0.21875q-0.25 -0.234375 -0.25 -0.59375q0 -0.34375 0.25 -0.5625q0.25 -0.234375 0.828125 -0.234375l0.953125 0l0 -3.890625l-0.578125 0q-0.578125 0 -0.828125 -0.21875q-0.25 -0.21875 -0.25 -0.578125q0 -0.359375 0.25 -0.578125q0.25 -0.21875 0.828125 -0.21875l2.171875 0zm11.1640625 6.28125q0 0.453125 -0.328125 0.765625q-0.3125 0.3125 -0.875 0.3125q-0.5625 0 -0.890625 -0.3125q-0.3125 -0.3125 -0.3125 -0.765625q0 -0.453125 0.3125 -0.75q0.328125 -0.3125 0.890625 -0.3125q0.5625 0 0.875 0.3125q0.328125 0.296875 0.328125 0.75zm10.8671875 -6.0q0.296875 -0.265625 0.59375 -0.265625q0.34375 0 0.5625 0.25q0.234375 0.234375 0.234375 0.8125l0 1.03125q0 0.578125 -0.234375 0.828125q-0.21875 0.234375 -0.578125 0.234375q-0.328125 0 -0.546875 -0.1875q-0.171875 -0.140625 -0.265625 -0.578125q-0.09375 -0.4375 -0.453125 -0.640625q-0.625 -0.375 -1.609375 -0.375q-1.140625 0 -1.828125 0.671875q-0.671875 0.65625 -0.671875 1.671875q0 0.9375 0.65625 1.484375q0.65625 0.53125 2.171875 0.53125q1.0 0 1.640625 -0.203125q0.375 -0.125 0.703125 -0.421875q0.34375 -0.296875 0.609375 -0.296875q0.328125 0 0.5625 0.25q0.25 0.234375 0.25 0.5625q0 0.53125 -0.734375 1.0q-1.078125 0.71875 -3.15625 0.71875q-1.859375 0 -2.90625 -0.78125q-1.40625 -1.03125 -1.40625 -2.84375q0 -1.703125 1.140625 -2.828125q1.140625 -1.125 2.984375 -1.125q0.65625 0 1.21875 0.125q0.578125 0.125 1.0625 0.375zm11.2734375 3.390625q0 0.921875 -0.515625 1.796875q-0.515625 0.859375 -1.53125 1.375q-1.0 0.515625 -2.109375 0.515625q-1.09375 0 -2.09375 -0.5q-1.0 -0.515625 -1.53125 -1.375q-0.515625 -0.875 -0.515625 -1.828125q0 -0.953125 0.53125 -1.875q0.53125 -0.9375 1.53125 -1.46875q1.0 -0.53125 2.078125 -0.53125q1.09375 0 2.109375 0.546875q1.015625 0.546875 1.53125 1.46875q0.515625 0.90625 0.515625 1.875zm-1.609375 0.015625q0 -0.78125 -0.546875 -1.421875q-0.765625 -0.875 -2.0 -0.875q-1.078125 0 -1.8125 0.703125q-0.71875 0.6875 -0.71875 1.59375q0 0.75 0.734375 1.40625q0.734375 0.65625 1.796875 0.65625q1.078125 0 1.8125 -0.65625q0.734375 -0.65625 0.734375 -1.40625zm5.4296875 -3.6875l0 0.53125q0.4375 -0.375 0.953125 -0.5625q0.53125 -0.1875 1.15625 -0.1875q1.421875 0 2.25 0.890625q0.65625 0.703125 0.65625 1.84375l0 2.96875q0.5 0 0.734375 0.234375q0.25 0.21875 0.25 0.578125q0 0.34375 -0.25 0.578125q-0.234375 0.21875 -0.8125 0.21875l-1.453125 0q-0.578125 0 -0.828125 -0.21875q-0.234375 -0.234375 -0.234375 -0.59375q0 -0.34375 0.234375 -0.5625q0.25 -0.234375 0.75 -0.234375l0 -3.015625q0 -0.53125 -0.28125 -0.765625q-0.359375 -0.3125 -1.09375 -0.3125q-0.5625 0 -0.984375 0.21875q-0.40625 0.203125 -1.046875 0.90625l0 2.96875q0.609375 0 0.796875 0.125q0.375 0.234375 0.375 0.6875q0 0.34375 -0.25 0.578125q-0.234375 0.21875 -0.8125 0.21875l-1.828125 0q-0.578125 0 -0.828125 -0.21875q-0.234375 -0.234375 -0.234375 -0.59375q0 -0.4375 0.375 -0.671875q0.1875 -0.125 0.796875 -0.125l0 -3.890625q-0.5 0 -0.75 -0.21875q-0.234375 -0.234375 -0.234375 -0.578125q0 -0.359375 0.234375 -0.578125q0.25 -0.21875 0.828125 -0.21875l1.53125 0zm14.8984375 -3.046875l0 8.53125l0.265625 0q0.578125 0 0.828125 0.234375q0.25 0.21875 0.25 0.578125q0 0.34375 -0.25 0.578125q-0.25 0.21875 -0.828125 0.21875l-1.875 0l0 -0.390625q-0.546875 0.3125 -1.140625 0.484375q-0.59375 0.171875 -1.234375 0.171875q-1.8125 0 -2.921875 -1.046875q-1.09375 -1.046875 -1.09375 -2.609375q0 -1.625 1.15625 -2.765625q1.15625 -1.15625 2.828125 -1.15625q0.625 0 1.21875 0.203125q0.609375 0.1875 1.1875 0.5625l0 -1.984375l-0.265625 0q-0.578125 0 -0.828125 -0.21875q-0.25 -0.234375 -0.25 -0.578125q0 -0.359375 0.25 -0.578125q0.25 -0.234375 0.828125 -0.234375l1.875 0zm-1.609375 6.796875q0 -0.984375 -0.703125 -1.671875q-0.6875 -0.6875 -1.6875 -0.6875q-1.0 0 -1.703125 0.6875q-0.6875 0.6875 -0.6875 1.65625q0 0.875 0.625 1.453125q0.625 0.5625 1.765625 0.5625q1.125 0 1.75 -0.5625q0.640625 -0.578125 0.640625 -1.4375z" fill-rule="nonzero"/><path fill="#000000" fill-opacity="0.0" d="m198.9394 439.8112l117.07088 0l0 38.771637l-117.07088 0z" fill-rule="evenodd"/><path fill="#000000" d="m212.73628 458.67117l0 3.890625l2.28125 0q0.578125 0 0.8125 0.234375q0.25 0.21875 0.25 0.578125q0 0.34375 -0.25 0.578125q-0.234375 0.21875 -0.8125 0.21875l-4.84375 0q-0.578125 0 -0.828125 -0.21875q-0.234375 -0.234375 -0.234375 -0.59375q0 -0.34375 0.234375 -0.5625q0.25 -0.234375 0.828125 -0.234375l0.953125 0l0 -3.890625l-0.765625 0q-0.578125 0 -0.828125 -0.21875q-0.234375 -0.21875 -0.234375 -0.578125q0 -0.359375 0.234375 -0.578125q0.25 -0.21875 0.828125 -0.21875l0.765625 0l0 -0.609375q0 -1.046875 0.78125 -1.734375q0.796875 -0.703125 2.28125 -0.703125q0.671875 0 1.53125 0.125q0.875 0.125 1.125 0.34375q0.25 0.21875 0.25 0.5625q0 0.359375 -0.21875 0.59375q-0.21875 0.234375 -0.546875 0.234375q-0.140625 0 -0.4375 -0.0625q-1.0 -0.1875 -1.765625 -0.1875q-0.796875 0 -1.09375 0.234375q-0.296875 0.234375 -0.296875 0.59375l0 0.609375l2.46875 0q0.578125 0 0.8125 0.21875q0.25 0.21875 0.25 0.578125q0 0.359375 -0.25 0.578125q-0.234375 0.21875 -0.8125 0.21875l-2.46875 0zm13.7734375 2.078125q0 0.921875 -0.515625 1.796875q-0.515625 0.859375 -1.53125 1.375q-1.0 0.515625 -2.109375 0.515625q-1.09375 0 -2.09375 -0.5q-1.0 -0.515625 -1.53125 -1.375q-0.515625 -0.875 -0.515625 -1.828125q0 -0.953125 0.53125 -1.875q0.53125 -0.9375 1.53125 -1.46875q1.0 -0.53125 2.078125 -0.53125q1.09375 0 2.109375 0.546875q1.015625 0.546875 1.53125 1.46875q0.515625 0.90625 0.515625 1.875zm-1.609375 0.015625q0 -0.78125 -0.546875 -1.421875q-0.765625 -0.875 -2.0 -0.875q-1.078125 0 -1.8125 0.703125q-0.71875 0.6875 -0.71875 1.59375q0 0.75 0.734375 1.40625q0.734375 0.65625 1.796875 0.65625q1.078125 0 1.8125 -0.65625q0.734375 -0.65625 0.734375 -1.40625zm6.7109375 -3.6875l0 1.0q1.015625 -0.734375 1.59375 -0.96875q0.578125 -0.25 1.09375 -0.25q0.78125 0 1.515625 0.578125q0.5 0.390625 0.5 0.796875q0 0.34375 -0.25 0.59375q-0.234375 0.234375 -0.5625 0.234375q-0.296875 0 -0.625 -0.296875q-0.328125 -0.296875 -0.59375 -0.296875q-0.328125 0 -1.0 0.421875q-0.671875 0.421875 -1.671875 1.265625l0 2.40625l2.28125 0q0.578125 0 0.828125 0.234375q0.25 0.21875 0.25 0.578125q0 0.34375 -0.25 0.578125q-0.25 0.21875 -0.828125 0.21875l-4.828125 0q-0.578125 0 -0.828125 -0.21875q-0.25 -0.234375 -0.25 -0.59375q0 -0.34375 0.25 -0.5625q0.25 -0.234375 0.828125 -0.234375l0.953125 0l0 -3.890625l-0.578125 0q-0.578125 0 -0.828125 -0.21875q-0.25 -0.21875 -0.25 -0.578125q0 -0.359375 0.25 -0.578125q0.25 -0.21875 0.828125 -0.21875l2.171875 0zm11.1640625 6.28125q0 0.453125 -0.328125 0.765625q-0.3125 0.3125 -0.875 0.3125q-0.5625 0 -0.890625 -0.3125q-0.3125 -0.3125 -0.3125 -0.765625q0 -0.453125 0.3125 -0.75q0.328125 -0.3125 0.890625 -0.3125q0.5625 0 0.875 0.3125q0.328125 0.296875 0.328125 0.75zm6.3515625 -9.328125l0 3.59375q0.59375 -0.375 1.1875 -0.5625q0.609375 -0.203125 1.234375 -0.203125q1.65625 0 2.8125 1.15625q1.15625 1.140625 1.15625 2.765625q0 1.5625 -1.109375 2.609375q-1.09375 1.046875 -2.890625 1.046875q-0.640625 0 -1.234375 -0.171875q-0.59375 -0.171875 -1.15625 -0.484375l0 0.390625l-1.875 0q-0.578125 0 -0.828125 -0.21875q-0.25 -0.234375 -0.25 -0.59375q0 -0.34375 0.25 -0.5625q0.265625 -0.234375 0.828125 -0.234375l0.28125 0l0 -6.921875l-0.28125 0q-0.578125 0 -0.828125 -0.21875q-0.25 -0.234375 -0.25 -0.59375q0 -0.34375 0.25 -0.5625q0.25 -0.234375 0.828125 -0.234375l1.875 0zm4.796875 6.796875q0 -0.984375 -0.703125 -1.671875q-0.6875 -0.6875 -1.703125 -0.6875q-1.0 0 -1.703125 0.6875q-0.6875 0.6875 -0.6875 1.65625q0 0.875 0.625 1.453125q0.625 0.5625 1.765625 0.5625q1.140625 0 1.765625 -0.5625q0.640625 -0.578125 0.640625 -1.4375zm10.992203 -0.078125q0 0.921875 -0.515625 1.796875q-0.515625 0.859375 -1.53125 1.375q-1.0 0.515625 -2.109375 0.515625q-1.09375 0 -2.09375 -0.5q-1.0 -0.515625 -1.53125 -1.375q-0.515625 -0.875 -0.515625 -1.828125q0 -0.953125 0.53125 -1.875q0.53125 -0.9375 1.53125 -1.46875q1.0 -0.53125 2.078125 -0.53125q1.09375 0 2.109375 0.546875q1.015625 0.546875 1.53125 1.46875q0.515625 0.90625 0.515625 1.875zm-1.609375 0.015625q0 -0.78125 -0.546875 -1.421875q-0.765625 -0.875 -2.0 -0.875q-1.078125 0 -1.8125 0.703125q-0.71875 0.6875 -0.71875 1.59375q0 0.75 0.734375 1.40625q0.734375 0.65625 1.796875 0.65625q1.078125 0 1.8125 -0.65625q0.734375 -0.65625 0.734375 -1.40625zm10.7265625 -6.734375l0 8.53125l0.265625 0q0.578125 0 0.828125 0.234375q0.25 0.21875 0.25 0.578125q0 0.34375 -0.25 0.578125q-0.25 0.21875 -0.828125 0.21875l-1.875 0l0 -0.390625q-0.546875 0.3125 -1.140625 0.484375q-0.59375 0.171875 -1.234375 0.171875q-1.8125 0 -2.921875 -1.046875q-1.09375 -1.046875 -1.09375 -2.609375q0 -1.625 1.15625 -2.765625q1.15625 -1.15625 2.828125 -1.15625q0.625 0 1.21875 0.203125q0.609375 0.1875 1.1875 0.5625l0 -1.984375l-0.265625 0q-0.578125 0 -0.828125 -0.21875q-0.25 -0.234375 -0.25 -0.578125q0 -0.359375 0.25 -0.578125q0.25 -0.234375 0.828125 -0.234375l1.875 0zm-1.609375 6.796875q0 -0.984375 -0.703125 -1.671875q-0.6875 -0.6875 -1.6875 -0.6875q-1.0 0 -1.703125 0.6875q-0.6875 0.6875 -0.6875 1.65625q0 0.875 0.625 1.453125q0.625 0.5625 1.765625 0.5625q1.125 0 1.75 -0.5625q0.640625 -0.578125 0.640625 -1.4375zm6.6328125 3.28125l-2.765625 -5.4375q-0.390625 -0.046875 -0.59375 -0.265625q-0.203125 -0.21875 -0.203125 -0.53125q0 -0.359375 0.234375 -0.578125q0.25 -0.21875 0.828125 -0.21875l1.46875 0q0.578125 0 0.8125 0.21875q0.25 0.21875 0.25 0.578125q0 0.359375 -0.25 0.578125q-0.234375 0.21875 -0.765625 0.21875l1.890625 3.6875l1.875 -3.6875q-0.515625 0 -0.765625 -0.21875q-0.25 -0.21875 -0.25 -0.578125q0 -0.359375 0.25 -0.578125q0.25 -0.21875 0.828125 -0.21875l1.5 0q0.578125 0 0.8125 0.21875q0.25 0.21875 0.25 0.578125q0 0.328125 -0.21875 0.546875q-0.203125 0.21875 -0.609375 0.25l-3.671875 7.25q0.59375 0 0.78125 0.109375q0.375 0.25 0.375 0.6875q0 0.359375 -0.25 0.578125q-0.234375 0.21875 -0.8125 0.21875l-3.5 0q-0.578125 0 -0.828125 -0.21875q-0.234375 -0.21875 -0.234375 -0.578125q0 -0.359375 0.234375 -0.578125q0.25 -0.21875 0.828125 -0.21875l1.59375 0l0.90625 -1.8125z" fill-rule="nonzero"/><path fill="#000000" fill-opacity="0.0" d="m646.9673 439.81116l117.07086 0l0 38.771637l-117.07086 0z" fill-rule="evenodd"/><path fill="#000000" d="m660.76416 458.67114l0 3.890625l2.28125 0q0.578125 0 0.8125 0.234375q0.25 0.21875 0.25 0.578125q0 0.34375 -0.25 0.578125q-0.234375 0.21875 -0.8125 0.21875l-4.84375 0q-0.578125 0 -0.828125 -0.21875q-0.234375 -0.234375 -0.234375 -0.59375q0 -0.34375 0.234375 -0.5625q0.25 -0.234375 0.828125 -0.234375l0.953125 0l0 -3.890625l-0.765625 0q-0.578125 0 -0.828125 -0.21875q-0.234375 -0.21875 -0.234375 -0.578125q0 -0.359375 0.234375 -0.578125q0.25 -0.21875 0.828125 -0.21875l0.765625 0l0 -0.609375q0 -1.046875 0.78125 -1.734375q0.796875 -0.703125 2.28125 -0.703125q0.671875 0 1.53125 0.125q0.875 0.125 1.125 0.34375q0.25 0.21875 0.25 0.5625q0 0.359375 -0.21875 0.59375q-0.21875 0.234375 -0.546875 0.234375q-0.140625 0 -0.4375 -0.0625q-1.0 -0.1875 -1.765625 -0.1875q-0.796875 0 -1.09375 0.234375q-0.296875 0.234375 -0.296875 0.59375l0 0.609375l2.46875 0q0.578125 0 0.8125 0.21875q0.25 0.21875 0.25 0.578125q0 0.359375 -0.25 0.578125q-0.234375 0.21875 -0.8125 0.21875l-2.46875 0zm13.7734375 2.078125q0 0.921875 -0.515625 1.796875q-0.515625 0.859375 -1.53125 1.375q-1.0 0.515625 -2.109375 0.515625q-1.09375 0 -2.09375 -0.5q-1.0 -0.515625 -1.53125 -1.375q-0.515625 -0.875 -0.515625 -1.828125q0 -0.953125 0.53125 -1.875q0.53125 -0.9375 1.53125 -1.46875q1.0 -0.53125 2.078125 -0.53125q1.09375 0 2.109375 0.546875q1.015625 0.546875 1.53125 1.46875q0.515625 0.90625 0.515625 1.875zm-1.609375 0.015625q0 -0.78125 -0.546875 -1.421875q-0.765625 -0.875 -2.0 -0.875q-1.078125 0 -1.8125 0.703125q-0.71875 0.6875 -0.71875 1.59375q0 0.75 0.734375 1.40625q0.734375 0.65625 1.796875 0.65625q1.078125 0 1.8125 -0.65625q0.734375 -0.65625 0.734375 -1.40625zm6.7109375 -3.6875l0 1.0q1.015625 -0.734375 1.59375 -0.96875q0.578125 -0.25 1.09375 -0.25q0.78125 0 1.515625 0.578125q0.5 0.390625 0.5 0.796875q0 0.34375 -0.25 0.59375q-0.234375 0.234375 -0.5625 0.234375q-0.296875 0 -0.625 -0.296875q-0.328125 -0.296875 -0.59375 -0.296875q-0.328125 0 -1.0 0.421875q-0.671875 0.421875 -1.671875 1.265625l0 2.40625l2.28125 0q0.578125 0 0.828125 0.234375q0.25 0.21875 0.25 0.578125q0 0.34375 -0.25 0.578125q-0.25 0.21875 -0.828125 0.21875l-4.828125 0q-0.578125 0 -0.828125 -0.21875q-0.25 -0.234375 -0.25 -0.59375q0 -0.34375 0.25 -0.5625q0.25 -0.234375 0.828125 -0.234375l0.953125 0l0 -3.890625l-0.578125 0q-0.578125 0 -0.828125 -0.21875q-0.25 -0.21875 -0.25 -0.578125q0 -0.359375 0.25 -0.578125q0.25 -0.21875 0.828125 -0.21875l2.171875 0zm11.1640625 6.28125q0 0.453125 -0.328125 0.765625q-0.3125 0.3125 -0.875 0.3125q-0.5625 0 -0.890625 -0.3125q-0.3125 -0.3125 -0.3125 -0.765625q0 -0.453125 0.3125 -0.75q0.328125 -0.3125 0.890625 -0.3125q0.5625 0 0.875 0.3125q0.328125 0.296875 0.328125 0.75zm8.9453125 -9.328125l0 1.703125l-1.90625 0l0 -1.703125l1.90625 0zm0.21875 3.046875l0 5.484375l1.921875 0q0.578125 0 0.828125 0.234375q0.25 0.21875 0.25 0.578125q0 0.34375 -0.25 0.578125q-0.25 0.21875 -0.828125 0.21875l-5.4375 0q-0.578125 0 -0.828125 -0.21875q-0.25 -0.234375 -0.25 -0.59375q0 -0.34375 0.25 -0.5625q0.25 -0.234375 0.828125 -0.234375l1.921875 0l0 -3.890625l-1.296875 0q-0.5625 0 -0.8125 -0.21875q-0.25 -0.21875 -0.25 -0.578125q0 -0.359375 0.234375 -0.578125q0.25 -0.21875 0.828125 -0.21875l2.890625 0zm7.1953125 0l0 0.53125q0.4375 -0.375 0.953125 -0.5625q0.53125 -0.1875 1.15625 -0.1875q1.421875 0 2.25 0.890625q0.65625 0.703125 0.65625 1.84375l0 2.96875q0.5 0 0.734375 0.234375q0.25 0.21875 0.25 0.578125q0 0.34375 -0.25 0.578125q-0.234375 0.21875 -0.8125 0.21875l-1.453125 0q-0.578125 0 -0.828125 -0.21875q-0.234375 -0.234375 -0.234375 -0.59375q0 -0.34375 0.234375 -0.5625q0.25 -0.234375 0.75 -0.234375l0 -3.015625q0 -0.53125 -0.28125 -0.765625q-0.359375 -0.3125 -1.09375 -0.3125q-0.5625 0 -0.984375 0.21875q-0.40625 0.203125 -1.046875 0.90625l0 2.96875q0.609375 0 0.796875 0.125q0.375 0.234375 0.375 0.6875q0 0.34375 -0.25 0.578125q-0.234375 0.21875 -0.8125 0.21875l-1.828125 0q-0.578125 0 -0.828125 -0.21875q-0.234375 -0.234375 -0.234375 -0.59375q0 -0.4375 0.375 -0.671875q0.1875 -0.125 0.796875 -0.125l0 -3.890625q-0.5 0 -0.75 -0.21875q-0.234375 -0.234375 -0.234375 -0.578125q0 -0.359375 0.234375 -0.578125q0.25 -0.21875 0.828125 -0.21875l1.53125 0zm13.7109375 0.28125q0.296875 -0.265625 0.59375 -0.265625q0.34375 0 0.5625 0.25q0.234375 0.234375 0.234375 0.8125l0 1.03125q0 0.578125 -0.234375 0.828125q-0.21875 0.234375 -0.578125 0.234375q-0.328125 0 -0.546875 -0.1875q-0.171875 -0.140625 -0.265625 -0.578125q-0.09375 -0.4375 -0.453125 -0.640625q-0.625 -0.375 -1.609375 -0.375q-1.140625 0 -1.828125 0.671875q-0.671875 0.65625 -0.671875 1.671875q0 0.9375 0.65625 1.484375q0.65625 0.53125 2.171875 0.53125q1.0 0 1.640625 -0.203125q0.375 -0.125 0.703125 -0.421875q0.34375 -0.296875 0.609375 -0.296875q0.328125 0 0.5625 0.25q0.25 0.234375 0.25 0.5625q0 0.53125 -0.734375 1.0q-1.078125 0.71875 -3.15625 0.71875q-1.859375 0 -2.90625 -0.78125q-1.40625 -1.03125 -1.40625 -2.84375q0 -1.703125 1.140625 -2.828125q1.140625 -1.125 2.984375 -1.125q0.65625 0 1.21875 0.125q0.578125 0.125 1.0625 0.375z" fill-rule="nonzero"/><path fill="#000000" fill-opacity="0.0" d="m485.58542 207.21548l117.07089 0l0 38.771652l-117.07089 0z" fill-rule="evenodd"/><path fill="#000000" d="m499.3823 226.07549l0 3.890625l2.28125 0q0.578125 0 0.8125 0.234375q0.25 0.21875 0.25 0.578125q0 0.34375 -0.25 0.578125q-0.234375 0.21875 -0.8125 0.21875l-4.84375 0q-0.578125 0 -0.828125 -0.21875q-0.234375 -0.234375 -0.234375 -0.59375q0 -0.34375 0.234375 -0.5625q0.25 -0.234375 0.828125 -0.234375l0.953125 0l0 -3.890625l-0.765625 0q-0.578125 0 -0.828125 -0.21875q-0.234375 -0.21875 -0.234375 -0.578125q0 -0.359375 0.234375 -0.578125q0.25 -0.21875 0.828125 -0.21875l0.765625 0l0 -0.609375q0 -1.046875 0.78125 -1.734375q0.796875 -0.703125 2.28125 -0.703125q0.671875 0 1.53125 0.125q0.875 0.125 1.125 0.34375q0.25 0.21875 0.25 0.5625q0 0.359375 -0.21875 0.59375q-0.21875 0.234375 -0.546875 0.234375q-0.140625 0 -0.4375 -0.0625q-1.0 -0.1875 -1.765625 -0.1875q-0.796875 0 -1.09375 0.234375q-0.296875 0.234375 -0.296875 0.59375l0 0.609375l2.46875 0q0.578125 0 0.8125 0.21875q0.25 0.21875 0.25 0.578125q0 0.359375 -0.25 0.578125q-0.234375 0.21875 -0.8125 0.21875l-2.46875 0zm13.773468 2.078125q0 0.921875 -0.515625 1.796875q-0.515625 0.859375 -1.5312805 1.375q-1.0 0.515625 -2.109375 0.515625q-1.09375 0 -2.09375 -0.5q-1.0 -0.515625 -1.53125 -1.375q-0.515625 -0.875 -0.515625 -1.828125q0 -0.953125 0.53125 -1.875q0.53125 -0.9375 1.53125 -1.46875q1.0 -0.53125 2.078125 -0.53125q1.09375 0 2.109375 0.546875q1.0156555 0.546875 1.5312805 1.46875q0.515625 0.90625 0.515625 1.875zm-1.6094055 0.015625q0 -0.78125 -0.546875 -1.421875q-0.765625 -0.875 -2.0 -0.875q-1.078125 0 -1.8125 0.703125q-0.71875 0.6875 -0.71875 1.59375q0 0.75 0.734375 1.40625q0.734375 0.65625 1.796875 0.65625q1.078125 0 1.8125 -0.65625q0.734375 -0.65625 0.734375 -1.40625zm6.710968 -3.6875l0 1.0q1.015625 -0.734375 1.59375 -0.96875q0.578125 -0.25 1.09375 -0.25q0.78125 0 1.515625 0.578125q0.5 0.390625 0.5 0.796875q0 0.34375 -0.25 0.59375q-0.234375 0.234375 -0.5625 0.234375q-0.296875 0 -0.625 -0.296875q-0.328125 -0.296875 -0.59375 -0.296875q-0.328125 0 -1.0 0.421875q-0.671875 0.421875 -1.671875 1.265625l0 2.40625l2.28125 0q0.578125 0 0.828125 0.234375q0.25 0.21875 0.25 0.578125q0 0.34375 -0.25 0.578125q-0.25 0.21875 -0.828125 0.21875l-4.828125 0q-0.578125 0 -0.828125 -0.21875q-0.25 -0.234375 -0.25 -0.59375q0 -0.34375 0.25 -0.5625q0.25 -0.234375 0.828125 -0.234375l0.953125 0l0 -3.890625l-0.578125 0q-0.578125 0 -0.828125 -0.21875q-0.25 -0.21875 -0.25 -0.578125q0 -0.359375 0.25 -0.578125q0.25 -0.21875 0.828125 -0.21875l2.171875 0zm11.1640625 6.28125q0 0.453125 -0.328125 0.765625q-0.3125 0.3125 -0.875 0.3125q-0.5625 0 -0.890625 -0.3125q-0.3125 -0.3125 -0.3125 -0.765625q0 -0.453125 0.3125 -0.75q0.328125 -0.3125 0.890625 -0.3125q0.5625 0 0.875 0.3125q0.328125 0.296875 0.328125 0.75zm12.3984375 -1.921875l-6.578125 0q0.25 0.625 0.890625 1.015625q0.640625 0.375 1.71875 0.375q0.890625 0 2.375 -0.390625q0.609375 -0.15625 0.84375 -0.15625q0.3125 0 0.53125 0.234375q0.21875 0.21875 0.21875 0.5625q0 0.3125 -0.234375 0.53125q-0.3125 0.296875 -1.53125 0.5625q-1.203125 0.265625 -2.3125 0.265625q-1.921875 0 -3.078125 -1.09375q-1.15625 -1.09375 -1.15625 -2.671875q0 -1.6875 1.25 -2.75q1.25 -1.0625 2.875 -1.0625q0.96875 0 1.78125 0.34375q0.828125 0.34375 1.21875 0.75q0.5625 0.578125 0.9375 1.421875q0.25 0.59375 0.25 1.375l0 0.6875zm-1.78125 -1.609375q-0.359375 -0.6875 -0.953125 -1.015625q-0.59375 -0.34375 -1.421875 -0.34375q-0.8125 0 -1.40625 0.34375q-0.59375 0.328125 -0.96875 1.015625l4.75 0zm5.7421875 -2.75l0 0.53125q0.4375 -0.375 0.953125 -0.5625q0.53125 -0.1875 1.15625 -0.1875q1.421875 0 2.25 0.890625q0.65625 0.703125 0.65625 1.84375l0 2.96875q0.5 0 0.734375 0.234375q0.25 0.21875 0.25 0.578125q0 0.34375 -0.25 0.578125q-0.234375 0.21875 -0.8125 0.21875l-1.453125 0q-0.578125 0 -0.828125 -0.21875q-0.234375 -0.234375 -0.234375 -0.59375q0 -0.34375 0.234375 -0.5625q0.25 -0.234375 0.75 -0.234375l0 -3.015625q0 -0.53125 -0.28125 -0.765625q-0.359375 -0.3125 -1.09375 -0.3125q-0.5625 0 -0.984375 0.21875q-0.40625 0.203125 -1.046875 0.90625l0 2.96875q0.609375 0 0.796875 0.125q0.375 0.234375 0.375 0.6875q0 0.34375 -0.25 0.578125q-0.234375 0.21875 -0.8125 0.21875l-1.828125 0q-0.578125 0 -0.828125 -0.21875q-0.234375 -0.234375 -0.234375 -0.59375q0 -0.4375 0.375 -0.671875q0.1875 -0.125 0.796875 -0.125l0 -3.890625q-0.5 0 -0.75 -0.21875q-0.234375 -0.234375 -0.234375 -0.578125q0 -0.359375 0.234375 -0.578125q0.25 -0.21875 0.828125 -0.21875l1.53125 0zm14.8984375 -3.046875l0 8.53125l0.265625 0q0.578125 0 0.828125 0.234375q0.25 0.21875 0.25 0.578125q0 0.34375 -0.25 0.578125q-0.25 0.21875 -0.828125 0.21875l-1.875 0l0 -0.390625q-0.546875 0.3125 -1.140625 0.484375q-0.59375 0.171875 -1.234375 0.171875q-1.8125 0 -2.921875 -1.046875q-1.09375 -1.046875 -1.09375 -2.609375q0 -1.625 1.15625 -2.765625q1.15625 -1.15625 2.828125 -1.15625q0.625 0 1.21875 0.203125q0.609375 0.1875 1.1875 0.5625l0 -1.984375l-0.265625 0q-0.578125 0 -0.828125 -0.21875q-0.25 -0.234375 -0.25 -0.578125q0 -0.359375 0.25 -0.578125q0.25 -0.234375 0.828125 -0.234375l1.875 0zm-1.609375 6.796875q0 -0.984375 -0.703125 -1.671875q-0.6875 -0.6875 -1.6875 -0.6875q-1.0 0 -1.703125 0.6875q-0.6875 0.6875 -0.6875 1.65625q0 0.875 0.625 1.453125q0.625 0.5625 1.765625 0.5625q1.125 0 1.75 -0.5625q0.640625 -0.578125 0.640625 -1.4375z" fill-rule="nonzero"/><path fill="#000000" fill-opacity="0.0" d="m670.0502 204.05429l38.456726 0l0 43.622055l-38.456726 0z" fill-rule="evenodd"/><path fill="#000000" d="m680.5189 217.94179l5.71875 0q1.703125 0 2.53125 0.140625q0.84375 0.140625 1.5 0.59375q0.65625 0.4375 1.09375 1.1875q0.4375 0.75 0.4375 1.671875q0 1.015625 -0.546875 1.859375q-0.53125 0.828125 -1.453125 1.25q1.296875 0.375 2.0 1.296875q0.703125 0.921875 0.703125 2.15625q0 0.984375 -0.453125 1.90625q-0.453125 0.921875 -1.234375 1.484375q-0.78125 0.546875 -1.9375 0.671875q-0.71875 0.078125 -3.484375 0.09375l-4.875 0l0 -14.3125zm2.890625 2.375l0 3.3125l1.890625 0q1.6875 0 2.09375 -0.046875q0.75 -0.09375 1.171875 -0.515625q0.421875 -0.421875 0.421875 -1.109375q0 -0.671875 -0.375 -1.078125q-0.359375 -0.421875 -1.078125 -0.515625q-0.421875 -0.046875 -2.46875 -0.046875l-1.65625 0zm0 5.703125l0 3.828125l2.671875 0q1.5625 0 1.984375 -0.09375q0.640625 -0.125 1.046875 -0.578125q0.40625 -0.453125 0.40625 -1.203125q0 -0.65625 -0.3125 -1.09375q-0.3125 -0.453125 -0.90625 -0.65625q-0.59375 -0.203125 -2.5625 -0.203125l-2.328125 0z" fill-rule="nonzero"/><path fill="#000000" fill-opacity="0.0" d="m257.4569 76.22441l0 130.99213" fill-rule="evenodd"/><path stroke="#595959" stroke-width="1.0" stroke-linejoin="round" stroke-linecap="butt" d="m257.4569 76.22441l0 124.99213" fill-rule="evenodd"/><path fill="#595959" stroke="#595959" stroke-width="1.0" stroke-linecap="butt" d="m255.80519 201.21654l1.6517181 4.538101l1.6517334 -4.538101z" fill-rule="evenodd"/><path fill="#000000" fill-opacity="0.0" d="m257.4606 245.98703l0 193.82678" fill-rule="evenodd"/><path stroke="#595959" stroke-width="1.0" stroke-linejoin="round" stroke-linecap="butt" d="m257.4606 245.98701l0 187.8268" fill-rule="evenodd"/><path fill="#595959" stroke="#595959" stroke-width="1.0" stroke-linecap="butt" d="m255.80885 433.8138l1.6517487 4.538086l1.6517334 -4.538086z" fill-rule="evenodd"/><path fill="#000000" fill-opacity="0.0" d="m316.01028 459.197l330.9606 0" fill-rule="evenodd"/><path stroke="#595959" stroke-width="1.0" stroke-linejoin="round" stroke-linecap="butt" d="m316.01028 459.19702l324.96066 0" fill-rule="evenodd"/><path fill="#595959" stroke="#595959" stroke-width="1.0" stroke-linecap="butt" d="m640.97095 460.84875l4.538086 -1.6517334l-4.538086 -1.6517334z" fill-rule="evenodd"/><path fill="#000000" fill-opacity="0.0" d="m321.31885 226.6012l164.25198 0" fill-rule="evenodd"/><path stroke="#595959" stroke-width="1.0" stroke-linejoin="round" stroke-linecap="butt" d="m321.31885 226.6012l158.25198 0" fill-rule="evenodd"/><path fill="#595959" stroke="#595959" stroke-width="1.0" stroke-linecap="butt" d="m479.57083 228.25293l4.538086 -1.6517334l-4.538086 -1.6517334z" fill-rule="evenodd"/><path fill="#000000" fill-opacity="0.0" d="m602.6563 226.60132l67.40155 -0.724411" fill-rule="evenodd"/><path stroke="#595959" stroke-width="1.0" stroke-linejoin="round" stroke-linecap="butt" d="m602.6563 226.60132l61.401855 -0.65992737" fill-rule="evenodd"/><path fill="#595959" stroke="#595959" stroke-width="1.0" stroke-linecap="butt" d="m664.076 227.59303l4.5200806 -1.7004089l-4.555603 -1.6028748z" fill-rule="evenodd"/><path fill="#000000" fill-opacity="0.0" d="m90.28865 255.66658l167.1811 0l0 38.771652l-167.1811 0z" fill-rule="evenodd"/><path fill="#339933" d="m102.0699 269.88596l0 3.59375q0.59375 -0.375 1.1875 -0.5625q0.609375 -0.203125 1.234375 -0.203125q1.65625 0 2.8125 1.15625q1.15625 1.140625 1.15625 2.765625q0 1.5625 -1.109375 2.609375q-1.09375 1.046875 -2.890625 1.046875q-0.640625 0 -1.234375 -0.171875q-0.59375 -0.171875 -1.15625 -0.484375l0 0.390625l-1.875 0q-0.578125 0 -0.828125 -0.21875q-0.25 -0.234375 -0.25 -0.59375q0 -0.34375 0.25 -0.5625q0.265625 -0.234375 0.828125 -0.234375l0.28125 0l0 -6.921875l-0.28125 0q-0.578125 0 -0.828125 -0.21875q-0.25 -0.234375 -0.25 -0.59375q0 -0.34375 0.25 -0.5625q0.25 -0.234375 0.828125 -0.234375l1.875 0zm4.796875 6.796875q0 -0.984375 -0.703125 -1.671875q-0.6875 -0.6875 -1.703125 -0.6875q-1.0 0 -1.703125 0.6875q-0.6875 0.6875 -0.6875 1.65625q0 0.875 0.625 1.453125q0.625 0.5625 1.765625 0.5625q1.140625 0 1.765625 -0.5625q0.640625 -0.578125 0.640625 -1.4375zm6.4921875 -3.75l0 1.0q1.015625 -0.734375 1.59375 -0.96875q0.578125 -0.25 1.09375 -0.25q0.78125 0 1.515625 0.578125q0.5 0.390625 0.5 0.796875q0 0.34375 -0.25 0.59375q-0.234375 0.234375 -0.5625 0.234375q-0.296875 0 -0.625 -0.296875q-0.328125 -0.296875 -0.59375 -0.296875q-0.328125 0 -1.0 0.421875q-0.671875 0.421875 -1.671875 1.265625l0 2.40625l2.28125 0q0.578125 0 0.828125 0.234375q0.25 0.21875 0.25 0.578125q0 0.34375 -0.25 0.578125q-0.25 0.21875 -0.828125 0.21875l-4.828125 0q-0.578125 0 -0.828125 -0.21875q-0.25 -0.234375 -0.25 -0.59375q0 -0.34375 0.25 -0.5625q0.25 -0.234375 0.828125 -0.234375l0.953125 0l0 -3.890625l-0.578125 0q-0.578125 0 -0.828125 -0.21875q-0.25 -0.21875 -0.25 -0.578125q0 -0.359375 0.25 -0.578125q0.25 -0.21875 0.828125 -0.21875l2.171875 0zm13.2890625 3.28125l-6.6875 0l0 -1.46875l6.6875 0l0 1.46875zm7.0546875 -6.328125l0 8.53125l1.921875 0q0.578125 0 0.8125 0.234375q0.25 0.21875 0.25 0.578125q0 0.34375 -0.25 0.578125q-0.234375 0.21875 -0.8125 0.21875l-5.453125 0q-0.578125 0 -0.828125 -0.21875q-0.234375 -0.234375 -0.234375 -0.59375q0 -0.34375 0.234375 -0.5625q0.25 -0.234375 0.828125 -0.234375l1.921875 0l0 -6.921875l-1.28125 0q-0.578125 0 -0.828125 -0.21875q-0.25 -0.234375 -0.25 -0.59375q0 -0.34375 0.25 -0.5625q0.25 -0.234375 0.828125 -0.234375l2.890625 0zm12.9609375 6.71875q0 0.921875 -0.515625 1.796875q-0.515625 0.859375 -1.53125 1.375q-1.0 0.515625 -2.109375 0.515625q-1.09375 0 -2.09375 -0.5q-1.0 -0.515625 -1.53125 -1.375q-0.515625 -0.875 -0.515625 -1.828125q0 -0.953125 0.53125 -1.875q0.53125 -0.9375 1.53125 -1.46875q1.0 -0.53125 2.078125 -0.53125q1.09375 0 2.109375 0.546875q1.015625 0.546875 1.53125 1.46875q0.515625 0.90625 0.515625 1.875zm-1.609375 0.015625q0 -0.78125 -0.546875 -1.421875q-0.765625 -0.875 -2.0 -0.875q-1.078125 0 -1.8125 0.703125q-0.71875 0.6875 -0.71875 1.59375q0 0.75 0.734375 1.40625q0.734375 0.65625 1.796875 0.65625q1.078125 0 1.8125 -0.65625q0.734375 -0.65625 0.734375 -1.40625zm11.2109375 -0.015625q0 0.921875 -0.515625 1.796875q-0.515625 0.859375 -1.53125 1.375q-1.0 0.515625 -2.109375 0.515625q-1.09375 0 -2.09375 -0.5q-1.0 -0.515625 -1.53125 -1.375q-0.515625 -0.875 -0.515625 -1.828125q0 -0.953125 0.53125 -1.875q0.53125 -0.9375 1.53125 -1.46875q1.0 -0.53125 2.078125 -0.53125q1.09375 0 2.109375 0.546875q1.015625 0.546875 1.53125 1.46875q0.515625 0.90625 0.515625 1.875zm-1.609375 0.015625q0 -0.78125 -0.546875 -1.421875q-0.765625 -0.875 -2.0 -0.875q-1.078125 0 -1.8125 0.703125q-0.71875 0.6875 -0.71875 1.59375q0 0.75 0.734375 1.40625q0.734375 0.65625 1.796875 0.65625q1.078125 0 1.8125 -0.65625q0.734375 -0.65625 0.734375 -1.40625zm5.0546875 2.515625l0 2.640625l0.96875 0q0.578125 0 0.8125 0.21875q0.25 0.21875 0.25 0.578125q0 0.359375 -0.25 0.578125q-0.234375 0.21875 -0.8125 0.21875l-2.84375 0q-0.578125 0 -0.828125 -0.21875q-0.25 -0.21875 -0.25 -0.578125q0 -0.359375 0.25 -0.578125q0.265625 -0.21875 0.828125 -0.21875l0.28125 0l0 -7.25l-0.28125 0q-0.578125 0 -0.828125 -0.21875q-0.25 -0.21875 -0.25 -0.578125q0 -0.359375 0.25 -0.578125q0.25 -0.21875 0.828125 -0.21875l1.875 0l0 0.546875q0.5625 -0.390625 1.15625 -0.578125q0.609375 -0.1875 1.25 -0.1875q1.640625 0 2.796875 1.125q1.15625 1.109375 1.15625 2.546875q0 1.578125 -1.375 2.609375q-1.140625 0.859375 -2.5625 0.859375q-0.625 0 -1.234375 -0.171875q-0.59375 -0.1875 -1.1875 -0.546875zm4.75 -2.75q0 -0.328125 -0.265625 -0.84375q-0.265625 -0.53125 -0.8125 -0.875q-0.546875 -0.34375 -1.296875 -0.34375q-1.1875 0 -1.890625 0.890625q-0.484375 0.625 -0.484375 1.1875q0 0.640625 0.6875 1.25q0.6875 0.609375 1.6875 0.609375q1.015625 0 1.6875 -0.59375q0.6875 -0.609375 0.6875 -1.28125zm8.5703125 -1.578125q-0.390625 -0.25 -0.828125 -0.359375q-0.421875 -0.125 -0.890625 -0.125q-0.921875 0 -1.46875 0.296875q-0.25 0.140625 -0.25 0.296875q0 0.171875 0.328125 0.34375q0.25 0.125 1.125 0.25q1.59375 0.21875 2.21875 0.4375q0.8125 0.28125 1.25 0.859375q0.453125 0.5625 0.453125 1.203125q0 0.859375 -0.75 1.4375q-1.09375 0.84375 -2.828125 0.84375q-0.6875 0 -1.28125 -0.125q-0.59375 -0.125 -1.078125 -0.359375q-0.125 0.09375 -0.265625 0.15625q-0.125 0.046875 -0.265625 0.046875q-0.375 0 -0.59375 -0.234375q-0.21875 -0.25 -0.21875 -0.828125l0 -0.546875q0 -0.578125 0.21875 -0.8125q0.21875 -0.25 0.578125 -0.25q0.296875 0 0.484375 0.15625q0.203125 0.15625 0.3125 0.546875q0.359375 0.3125 0.875 0.484375q0.515625 0.15625 1.1875 0.15625q1.109375 0 1.71875 -0.34375q0.28125 -0.171875 0.28125 -0.359375q0 -0.3125 -0.40625 -0.515625q-0.421875 -0.203125 -1.71875 -0.34375q-1.921875 -0.203125 -2.578125 -0.78125q-0.640625 -0.578125 -0.640625 -1.40625q0 -0.859375 0.71875 -1.4375q0.984375 -0.78125 2.578125 -0.78125q0.5625 0 1.0625 0.109375q0.515625 0.109375 0.984375 0.328125q0.15625 -0.109375 0.28125 -0.15625q0.125 -0.0625 0.234375 -0.0625q0.328125 0 0.546875 0.25q0.21875 0.234375 0.21875 0.8125l0 0.390625q0 0.53125 -0.125 0.71875q-0.25 0.359375 -0.671875 0.359375q-0.296875 0 -0.515625 -0.171875q-0.21875 -0.1875 -0.28125 -0.484375zm7.4765625 -0.28125l0 3.21875q0 0.515625 0.21875 0.671875q0.328125 0.265625 1.171875 0.265625q1.21875 0 2.265625 -0.53125q0.390625 -0.203125 0.625 -0.203125q0.3125 0 0.53125 0.234375q0.234375 0.234375 0.234375 0.578125q0 0.3125 -0.25 0.53125q-0.375 0.375 -1.515625 0.6875q-1.125 0.3125 -1.890625 0.3125q-1.5 0 -2.25 -0.640625q-0.734375 -0.65625 -0.734375 -1.59375l0 -3.53125l-0.578125 0q-0.578125 0 -0.828125 -0.21875q-0.25 -0.21875 -0.25 -0.578125q0 -0.359375 0.25 -0.578125q0.25 -0.21875 0.828125 -0.21875l0.578125 0l0 -1.453125q0 -0.578125 0.21875 -0.8125q0.21875 -0.25 0.578125 -0.25q0.359375 0 0.578125 0.25q0.21875 0.234375 0.21875 0.8125l0 1.453125l2.96875 0q0.578125 0 0.8125 0.21875q0.25 0.21875 0.25 0.578125q0 0.359375 -0.25 0.578125q-0.234375 0.21875 -0.8125 0.21875l-2.96875 0zm11.4453125 5.5l0 -0.375q-0.609375 0.3125 -1.34375 0.46875q-0.71875 0.171875 -1.3125 0.171875q-1.28125 0 -2.09375 -0.6875q-0.796875 -0.6875 -0.796875 -1.515625q0 -1.0 1.015625 -1.859375q1.03125 -0.875 2.84375 -0.875q0.734375 0 1.6875 0.15625l0 -0.375q0 -0.359375 -0.3125 -0.578125q-0.3125 -0.234375 -1.171875 -0.234375q-0.71875 0 -1.84375 0.28125q-0.421875 0.09375 -0.65625 0.09375q-0.328125 0 -0.546875 -0.21875q-0.21875 -0.234375 -0.21875 -0.59375q0 -0.203125 0.078125 -0.34375q0.078125 -0.15625 0.21875 -0.25q0.140625 -0.09375 0.578125 -0.21875q0.59375 -0.15625 1.203125 -0.25q0.625 -0.109375 1.125 -0.109375q1.5 0 2.3125 0.65625q0.828125 0.640625 0.828125 1.75l0 3.296875l0.28125 0q0.578125 0 0.8125 0.234375q0.25 0.21875 0.25 0.578125q0 0.34375 -0.25 0.578125q-0.234375 0.21875 -0.8125 0.21875l-1.875 0zm0 -2.875q-0.96875 -0.1875 -1.78125 -0.1875q-0.96875 0 -1.671875 0.484375q-0.4375 0.296875 -0.4375 0.609375q0 0.234375 0.203125 0.375q0.390625 0.25 1.078125 0.25q0.578125 0 1.296875 -0.21875q0.734375 -0.234375 1.3125 -0.625l0 -0.6875zm7.8203125 -4.21875l0 1.0q1.015625 -0.734375 1.59375 -0.96875q0.578125 -0.25 1.09375 -0.25q0.78125 0 1.515625 0.578125q0.5 0.390625 0.5 0.796875q0 0.34375 -0.25 0.59375q-0.234375 0.234375 -0.5625 0.234375q-0.296875 0 -0.625 -0.296875q-0.328125 -0.296875 -0.59375 -0.296875q-0.328125 0 -1.0 0.421875q-0.671875 0.421875 -1.671875 1.265625l0 2.40625l2.28125 0q0.578125 0 0.828125 0.234375q0.25 0.21875 0.25 0.578125q0 0.34375 -0.25 0.578125q-0.25 0.21875 -0.828125 0.21875l-4.828125 0q-0.578125 0 -0.828125 -0.21875q-0.25 -0.234375 -0.25 -0.59375q0 -0.34375 0.25 -0.5625q0.25 -0.234375 0.828125 -0.234375l0.953125 0l0 -3.890625l-0.578125 0q-0.578125 0 -0.828125 -0.21875q-0.25 -0.21875 -0.25 -0.578125q0 -0.359375 0.25 -0.578125q0.25 -0.21875 0.828125 -0.21875l2.171875 0zm9.5390625 1.59375l0 3.21875q0 0.515625 0.21875 0.671875q0.328125 0.265625 1.171875 0.265625q1.21875 0 2.265625 -0.53125q0.390625 -0.203125 0.625 -0.203125q0.3125 0 0.53125 0.234375q0.234375 0.234375 0.234375 0.578125q0 0.3125 -0.25 0.53125q-0.375 0.375 -1.515625 0.6875q-1.125 0.3125 -1.890625 0.3125q-1.5 0 -2.25 -0.640625q-0.734375 -0.65625 -0.734375 -1.59375l0 -3.53125l-0.578125 0q-0.578125 0 -0.828125 -0.21875q-0.25 -0.21875 -0.25 -0.578125q0 -0.359375 0.25 -0.578125q0.25 -0.21875 0.828125 -0.21875l0.578125 0l0 -1.453125q0 -0.578125 0.21875 -0.8125q0.21875 -0.25 0.578125 -0.25q0.359375 0 0.578125 0.25q0.21875 0.234375 0.21875 0.8125l0 1.453125l2.96875 0q0.578125 0 0.8125 0.21875q0.25 0.21875 0.25 0.578125q0 0.359375 -0.25 0.578125q-0.234375 0.21875 -0.8125 0.21875l-2.96875 0z" fill-rule="nonzero"/><path fill="#000000" fill-opacity="0.0" d="m327.83347 182.99336l167.18109 0l0 38.771652l-167.18109 0z" fill-rule="evenodd"/><path fill="#339933" d="m339.61472 197.21274l0 3.59375q0.59375 -0.375 1.1875 -0.5625q0.609375 -0.203125 1.234375 -0.203125q1.65625 0 2.8125 1.15625q1.15625 1.140625 1.15625 2.765625q0 1.5625 -1.109375 2.609375q-1.09375 1.046875 -2.890625 1.046875q-0.640625 0 -1.234375 -0.171875q-0.59375 -0.171875 -1.15625 -0.484375l0 0.390625l-1.875 0q-0.578125 0 -0.828125 -0.21875q-0.25 -0.234375 -0.25 -0.59375q0 -0.34375 0.25 -0.5625q0.265625 -0.234375 0.828125 -0.234375l0.28125 0l0 -6.921875l-0.28125 0q-0.578125 0 -0.828125 -0.21875q-0.25 -0.234375 -0.25 -0.59375q0 -0.34375 0.25 -0.5625q0.25 -0.234375 0.828125 -0.234375l1.875 0zm4.796875 6.796875q0 -0.984375 -0.703125 -1.671875q-0.6875 -0.6875 -1.703125 -0.6875q-1.0 0 -1.703125 0.6875q-0.6875 0.6875 -0.6875 1.65625q0 0.875 0.625 1.453125q0.625 0.5625 1.765625 0.5625q1.140625 0 1.765625 -0.5625q0.640625 -0.578125 0.640625 -1.4375zm6.4921875 -3.75l0 1.0q1.015625 -0.734375 1.59375 -0.96875q0.578125 -0.25 1.09375 -0.25q0.78125 0 1.515625 0.578125q0.5 0.390625 0.5 0.796875q0 0.34375 -0.25 0.59375q-0.234375 0.234375 -0.5625 0.234375q-0.296875 0 -0.625 -0.296875q-0.328125 -0.296875 -0.59375 -0.296875q-0.328125 0 -1.0 0.421875q-0.671875 0.421875 -1.671875 1.265625l0 2.40625l2.28125 0q0.578125 0 0.828125 0.234375q0.25 0.21875 0.25 0.578125q0 0.34375 -0.25 0.578125q-0.25 0.21875 -0.828125 0.21875l-4.828125 0q-0.578125 0 -0.828125 -0.21875q-0.25 -0.234375 -0.25 -0.59375q0 -0.34375 0.25 -0.5625q0.25 -0.234375 0.828125 -0.234375l0.953125 0l0 -3.890625l-0.578125 0q-0.578125 0 -0.828125 -0.21875q-0.25 -0.21875 -0.25 -0.578125q0 -0.359375 0.25 -0.578125q0.25 -0.21875 0.828125 -0.21875l2.171875 0zm13.2890625 3.28125l-6.6875 0l0 -1.46875l6.6875 0l0 1.46875zm7.0546875 -6.328125l0 8.53125l1.921875 0q0.578125 0 0.8125 0.234375q0.25 0.21875 0.25 0.578125q0 0.34375 -0.25 0.578125q-0.234375 0.21875 -0.8125 0.21875l-5.453125 0q-0.578125 0 -0.828125 -0.21875q-0.234375 -0.234375 -0.234375 -0.59375q0 -0.34375 0.234375 -0.5625q0.25 -0.234375 0.828125 -0.234375l1.921875 0l0 -6.921875l-1.28125 0q-0.578125 0 -0.828125 -0.21875q-0.25 -0.234375 -0.25 -0.59375q0 -0.34375 0.25 -0.5625q0.25 -0.234375 0.828125 -0.234375l2.890625 0zm12.9609375 6.71875q0 0.921875 -0.515625 1.796875q-0.515625 0.859375 -1.53125 1.375q-1.0 0.515625 -2.109375 0.515625q-1.09375 0 -2.09375 -0.5q-1.0 -0.515625 -1.53125 -1.375q-0.515625 -0.875 -0.515625 -1.828125q0 -0.953125 0.53125 -1.875q0.53125 -0.9375 1.53125 -1.46875q1.0 -0.53125 2.078125 -0.53125q1.09375 0 2.109375 0.546875q1.015625 0.546875 1.53125 1.46875q0.515625 0.90625 0.515625 1.875zm-1.609375 0.015625q0 -0.78125 -0.546875 -1.421875q-0.765625 -0.875 -2.0 -0.875q-1.078125 0 -1.8125 0.703125q-0.71875 0.6875 -0.71875 1.59375q0 0.75 0.734375 1.40625q0.734375 0.65625 1.796875 0.65625q1.078125 0 1.8125 -0.65625q0.734375 -0.65625 0.734375 -1.40625zm11.2109375 -0.015625q0 0.921875 -0.515625 1.796875q-0.515625 0.859375 -1.53125 1.375q-1.0 0.515625 -2.109375 0.515625q-1.09375 0 -2.09375 -0.5q-1.0 -0.515625 -1.53125 -1.375q-0.515625 -0.875 -0.515625 -1.828125q0 -0.953125 0.53125 -1.875q0.53125 -0.9375 1.53125 -1.46875q1.0 -0.53125 2.078125 -0.53125q1.09375 0 2.109375 0.546875q1.015625 0.546875 1.53125 1.46875q0.515625 0.90625 0.515625 1.875zm-1.609375 0.015625q0 -0.78125 -0.546875 -1.421875q-0.765625 -0.875 -2.0 -0.875q-1.078125 0 -1.8125 0.703125q-0.71875 0.6875 -0.71875 1.59375q0 0.75 0.734375 1.40625q0.734375 0.65625 1.796875 0.65625q1.078125 0 1.8125 -0.65625q0.734375 -0.65625 0.734375 -1.40625zm5.0546875 2.515625l0 2.640625l0.96875 0q0.578125 0 0.8125 0.21875q0.25 0.21875 0.25 0.578125q0 0.359375 -0.25 0.578125q-0.234375 0.21875 -0.8125 0.21875l-2.84375 0q-0.578125 0 -0.828125 -0.21875q-0.25 -0.21875 -0.25 -0.578125q0 -0.359375 0.25 -0.578125q0.265625 -0.21875 0.828125 -0.21875l0.28125 0l0 -7.25l-0.28125 0q-0.578125 0 -0.828125 -0.21875q-0.25 -0.21875 -0.25 -0.578125q0 -0.359375 0.25 -0.578125q0.25 -0.21875 0.828125 -0.21875l1.875 0l0 0.546875q0.5625 -0.390625 1.15625 -0.578125q0.609375 -0.1875 1.25 -0.1875q1.640625 0 2.796875 1.125q1.15625 1.109375 1.15625 2.546875q0 1.578125 -1.375 2.609375q-1.140625 0.859375 -2.5625 0.859375q-0.625 0 -1.234375 -0.171875q-0.59375 -0.1875 -1.1875 -0.546875zm4.75 -2.75q0 -0.328125 -0.265625 -0.84375q-0.265625 -0.53125 -0.8125 -0.875q-0.546875 -0.34375 -1.296875 -0.34375q-1.1875 0 -1.890625 0.890625q-0.484375 0.625 -0.484375 1.1875q0 0.640625 0.6875 1.25q0.6875 0.609375 1.6875 0.609375q1.015625 0 1.6875 -0.59375q0.6875 -0.609375 0.6875 -1.28125zm8.5703125 -1.578125q-0.390625 -0.25 -0.828125 -0.359375q-0.421875 -0.125 -0.890625 -0.125q-0.921875 0 -1.46875 0.296875q-0.25 0.140625 -0.25 0.296875q0 0.171875 0.328125 0.34375q0.25 0.125 1.125 0.25q1.59375 0.21875 2.21875 0.4375q0.8125 0.28125 1.25 0.859375q0.453125 0.5625 0.453125 1.203125q0 0.859375 -0.75 1.4375q-1.09375 0.84375 -2.828125 0.84375q-0.6875 0 -1.28125 -0.125q-0.59375 -0.125 -1.078125 -0.359375q-0.125 0.09375 -0.265625 0.15625q-0.125 0.046875 -0.265625 0.046875q-0.375 0 -0.59375 -0.234375q-0.21875 -0.25 -0.21875 -0.828125l0 -0.546875q0 -0.578125 0.21875 -0.8125q0.21875 -0.25 0.578125 -0.25q0.296875 0 0.484375 0.15625q0.203125 0.15625 0.3125 0.546875q0.359375 0.3125 0.875 0.484375q0.515625 0.15625 1.1875 0.15625q1.109375 0 1.71875 -0.34375q0.28125 -0.171875 0.28125 -0.359375q0 -0.3125 -0.40625 -0.515625q-0.421875 -0.203125 -1.71875 -0.34375q-1.921875 -0.203125 -2.578125 -0.78125q-0.640625 -0.578125 -0.640625 -1.40625q0 -0.859375 0.71875 -1.4375q0.984375 -0.78125 2.578125 -0.78125q0.5625 0 1.0625 0.109375q0.515625 0.109375 0.984375 0.328125q0.15625 -0.109375 0.28125 -0.15625q0.125 -0.0625 0.234375 -0.0625q0.328125 0 0.546875 0.25q0.21875 0.234375 0.21875 0.8125l0 0.390625q0 0.53125 -0.125 0.71875q-0.25 0.359375 -0.671875 0.359375q-0.296875 0 -0.515625 -0.171875q-0.21875 -0.1875 -0.28125 -0.484375zm7.4765625 -0.28125l0 3.21875q0 0.515625 0.21875 0.671875q0.328125 0.265625 1.171875 0.265625q1.21875 0 2.265625 -0.53125q0.390625 -0.203125 0.625 -0.203125q0.3125 0 0.53125 0.234375q0.234375 0.234375 0.234375 0.578125q0 0.3125 -0.25 0.53125q-0.375 0.375 -1.515625 0.6875q-1.125 0.3125 -1.890625 0.3125q-1.5 0 -2.25 -0.640625q-0.734375 -0.65625 -0.734375 -1.59375l0 -3.53125l-0.578125 0q-0.578125 0 -0.828125 -0.21875q-0.25 -0.21875 -0.25 -0.578125q0 -0.359375 0.25 -0.578125q0.25 -0.21875 0.828125 -0.21875l0.578125 0l0 -1.453125q0 -0.578125 0.21875 -0.8125q0.21875 -0.25 0.578125 -0.25q0.359375 0 0.578125 0.25q0.21875 0.234375 0.21875 0.8125l0 1.453125l2.96875 0q0.578125 0 0.8125 0.21875q0.25 0.21875 0.25 0.578125q0 0.359375 -0.25 0.578125q-0.234375 0.21875 -0.8125 0.21875l-2.96875 0zm11.4453125 5.5l0 -0.375q-0.609375 0.3125 -1.34375 0.46875q-0.71875 0.171875 -1.3125 0.171875q-1.28125 0 -2.09375 -0.6875q-0.796875 -0.6875 -0.796875 -1.515625q0 -1.0 1.015625 -1.859375q1.03125 -0.875 2.84375 -0.875q0.734375 0 1.6875 0.15625l0 -0.375q0 -0.359375 -0.3125 -0.578125q-0.3125 -0.234375 -1.171875 -0.234375q-0.71875 0 -1.84375 0.28125q-0.421875 0.09375 -0.65625 0.09375q-0.328125 0 -0.546875 -0.21875q-0.21875 -0.234375 -0.21875 -0.59375q0 -0.203125 0.078125 -0.34375q0.078125 -0.15625 0.21875 -0.25q0.140625 -0.09375 0.578125 -0.21875q0.59375 -0.15625 1.203125 -0.25q0.625 -0.109375 1.125 -0.109375q1.5 0 2.3125 0.65625q0.828125 0.640625 0.828125 1.75l0 3.296875l0.28125 0q0.578125 0 0.8125 0.234375q0.25 0.21875 0.25 0.578125q0 0.34375 -0.25 0.578125q-0.234375 0.21875 -0.8125 0.21875l-1.875 0zm0 -2.875q-0.96875 -0.1875 -1.78125 -0.1875q-0.96875 0 -1.671875 0.484375q-0.4375 0.296875 -0.4375 0.609375q0 0.234375 0.203125 0.375q0.390625 0.25 1.078125 0.25q0.578125 0 1.296875 -0.21875q0.734375 -0.234375 1.3125 -0.625l0 -0.6875zm7.8203125 -4.21875l0 1.0q1.015625 -0.734375 1.59375 -0.96875q0.578125 -0.25 1.09375 -0.25q0.78125 0 1.515625 0.578125q0.5 0.390625 0.5 0.796875q0 0.34375 -0.25 0.59375q-0.234375 0.234375 -0.5625 0.234375q-0.296875 0 -0.625 -0.296875q-0.328125 -0.296875 -0.59375 -0.296875q-0.328125 0 -1.0 0.421875q-0.671875 0.421875 -1.671875 1.265625l0 2.40625l2.28125 0q0.578125 0 0.828125 0.234375q0.25 0.21875 0.25 0.578125q0 0.34375 -0.25 0.578125q-0.25 0.21875 -0.828125 0.21875l-4.828125 0q-0.578125 0 -0.828125 -0.21875q-0.25 -0.234375 -0.25 -0.59375q0 -0.34375 0.25 -0.5625q0.25 -0.234375 0.828125 -0.234375l0.953125 0l0 -3.890625l-0.578125 0q-0.578125 0 -0.828125 -0.21875q-0.25 -0.21875 -0.25 -0.578125q0 -0.359375 0.25 -0.578125q0.25 -0.21875 0.828125 -0.21875l2.171875 0zm9.5390625 1.59375l0 3.21875q0 0.515625 0.21875 0.671875q0.328125 0.265625 1.171875 0.265625q1.21875 0 2.265625 -0.53125q0.390625 -0.203125 0.625 -0.203125q0.3125 0 0.53125 0.234375q0.234375 0.234375 0.234375 0.578125q0 0.3125 -0.25 0.53125q-0.375 0.375 -1.515625 0.6875q-1.125 0.3125 -1.890625 0.3125q-1.5 0 -2.25 -0.640625q-0.734375 -0.65625 -0.734375 -1.59375l0 -3.53125l-0.578125 0q-0.578125 0 -0.828125 -0.21875q-0.25 -0.21875 -0.25 -0.578125q0 -0.359375 0.25 -0.578125q0.25 -0.21875 0.828125 -0.21875l0.578125 0l0 -1.453125q0 -0.578125 0.21875 -0.8125q0.21875 -0.25 0.578125 -0.25q0.359375 0 0.578125 0.25q0.21875 0.234375 0.21875 0.8125l0 1.453125l2.96875 0q0.578125 0 0.8125 0.21875q0.25 0.21875 0.25 0.578125q0 0.359375 -0.25 0.578125q-0.234375 0.21875 -0.8125 0.21875l-2.96875 0z" fill-rule="nonzero"/><path fill="#000000" fill-opacity="0.0" d="m611.95294 182.99336l48.787354 0l0 38.771652l-48.787354 0z" fill-rule="evenodd"/><path fill="#339933" d="m623.7342 197.21274l0 3.59375q0.59375 -0.375 1.1875 -0.5625q0.609375 -0.203125 1.234375 -0.203125q1.65625 0 2.8125 1.15625q1.15625 1.140625 1.15625 2.765625q0 1.5625 -1.109375 2.609375q-1.09375 1.046875 -2.890625 1.046875q-0.640625 0 -1.234375 -0.171875q-0.59375 -0.171875 -1.15625 -0.484375l0 0.390625l-1.875 0q-0.578125 0 -0.828125 -0.21875q-0.25 -0.234375 -0.25 -0.59375q0 -0.34375 0.25 -0.5625q0.265625 -0.234375 0.828125 -0.234375l0.28125 0l0 -6.921875l-0.28125 0q-0.578125 0 -0.828125 -0.21875q-0.25 -0.234375 -0.25 -0.59375q0 -0.34375 0.25 -0.5625q0.25 -0.234375 0.828125 -0.234375l1.875 0zm4.796875 6.796875q0 -0.984375 -0.703125 -1.671875q-0.6875 -0.6875 -1.703125 -0.6875q-1.0 0 -1.703125 0.6875q-0.6875 0.6875 -0.6875 1.65625q0 0.875 0.625 1.453125q0.625 0.5625 1.765625 0.5625q1.140625 0 1.765625 -0.5625q0.640625 -0.578125 0.640625 -1.4375zm6.4921875 -3.75l0 1.0q1.015625 -0.734375 1.59375 -0.96875q0.578125 -0.25 1.09375 -0.25q0.78125 0 1.515625 0.578125q0.5 0.390625 0.5 0.796875q0 0.34375 -0.25 0.59375q-0.234375 0.234375 -0.5625 0.234375q-0.296875 0 -0.625 -0.296875q-0.328125 -0.296875 -0.59375 -0.296875q-0.328125 0 -1.0 0.421875q-0.671875 0.421875 -1.671875 1.265625l0 2.40625l2.28125 0q0.578125 0 0.828125 0.234375q0.25 0.21875 0.25 0.578125q0 0.34375 -0.25 0.578125q-0.25 0.21875 -0.828125 0.21875l-4.828125 0q-0.578125 0 -0.828125 -0.21875q-0.25 -0.234375 -0.25 -0.59375q0 -0.34375 0.25 -0.5625q0.25 -0.234375 0.828125 -0.234375l0.953125 0l0 -3.890625l-0.578125 0q-0.578125 0 -0.828125 -0.21875q-0.25 -0.21875 -0.25 -0.578125q0 -0.359375 0.25 -0.578125q0.25 -0.21875 0.828125 -0.21875l2.171875 0z" fill-rule="nonzero"/><path fill="#000000" fill-opacity="0.0" d="m764.03815 459.197l90.01575 0" fill-rule="evenodd"/><path stroke="#595959" stroke-width="1.0" stroke-linejoin="round" stroke-linecap="butt" d="m764.03815 459.19696l86.22571 0" fill-rule="evenodd"/><path stroke="#595959" stroke-width="1.0" stroke-linecap="butt" d="m850.2639 457.55197l3.289978 0l0 3.2900085l-3.289978 0l0 -3.2900085z" fill-rule="nonzero"/><path fill="#000000" fill-opacity="0.0" d="m736.68164 468.62628l160.47247 0l0 38.771637l-160.47247 0z" fill-rule="evenodd"/><path fill="#339933" d="m748.4629 482.84564l0 3.59375q0.59375 -0.375 1.1875 -0.5625q0.609375 -0.203125 1.234375 -0.203125q1.65625 0 2.8125 1.15625q1.15625 1.140625 1.15625 2.765625q0 1.5625 -1.109375 2.609375q-1.09375 1.046875 -2.890625 1.046875q-0.640625 0 -1.234375 -0.171875q-0.59375 -0.171875 -1.15625 -0.484375l0 0.390625l-1.875 0q-0.578125 0 -0.828125 -0.21875q-0.25 -0.234375 -0.25 -0.59375q0 -0.34375 0.25 -0.5625q0.265625 -0.234375 0.828125 -0.234375l0.28125 0l0 -6.921875l-0.28125 0q-0.578125 0 -0.828125 -0.21875q-0.25 -0.234375 -0.25 -0.59375q0 -0.34375 0.25 -0.5625q0.25 -0.234375 0.828125 -0.234375l1.875 0zm4.796875 6.796875q0 -0.984375 -0.703125 -1.671875q-0.6875 -0.6875 -1.703125 -0.6875q-1.0 0 -1.703125 0.6875q-0.6875 0.6875 -0.6875 1.65625q0 0.875 0.625 1.453125q0.625 0.5625 1.765625 0.5625q1.140625 0 1.765625 -0.5625q0.640625 -0.578125 0.640625 -1.4375zm6.4921875 -3.75l0 1.0q1.015625 -0.734375 1.59375 -0.96875q0.578125 -0.25 1.09375 -0.25q0.78125 0 1.515625 0.578125q0.5 0.390625 0.5 0.796875q0 0.34375 -0.25 0.59375q-0.234375 0.234375 -0.5625 0.234375q-0.296875 0 -0.625 -0.296875q-0.328125 -0.296875 -0.59375 -0.296875q-0.328125 0 -1.0 0.421875q-0.671875 0.421875 -1.671875 1.265625l0 2.40625l2.28125 0q0.578125 0 0.828125 0.234375q0.25 0.21875 0.25 0.578125q0 0.34375 -0.25 0.578125q-0.25 0.21875 -0.828125 0.21875l-4.828125 0q-0.578125 0 -0.828125 -0.21875q-0.25 -0.234375 -0.25 -0.59375q0 -0.34375 0.25 -0.5625q0.25 -0.234375 0.828125 -0.234375l0.953125 0l0 -3.890625l-0.578125 0q-0.578125 0 -0.828125 -0.21875q-0.25 -0.21875 -0.25 -0.578125q0 -0.359375 0.25 -0.578125q0.25 -0.21875 0.828125 -0.21875l2.171875 0zm13.2890625 3.28125l-6.6875 0l0 -1.46875l6.6875 0l0 1.46875zm4.2265625 -6.328125l0 3.59375q0.59375 -0.375 1.1875 -0.5625q0.609375 -0.203125 1.234375 -0.203125q1.65625 0 2.8125 1.15625q1.15625 1.140625 1.15625 2.765625q0 1.5625 -1.109375 2.609375q-1.09375 1.046875 -2.890625 1.046875q-0.640625 0 -1.234375 -0.171875q-0.59375 -0.171875 -1.15625 -0.484375l0 0.390625l-1.875 0q-0.578125 0 -0.828125 -0.21875q-0.25 -0.234375 -0.25 -0.59375q0 -0.34375 0.25 -0.5625q0.265625 -0.234375 0.828125 -0.234375l0.28125 0l0 -6.921875l-0.28125 0q-0.578125 0 -0.828125 -0.21875q-0.25 -0.234375 -0.25 -0.59375q0 -0.34375 0.25 -0.5625q0.25 -0.234375 0.828125 -0.234375l1.875 0zm4.796875 6.796875q0 -0.984375 -0.703125 -1.671875q-0.6875 -0.6875 -1.703125 -0.6875q-1.0 0 -1.703125 0.6875q-0.6875 0.6875 -0.6875 1.65625q0 0.875 0.625 1.453125q0.625 0.5625 1.765625 0.5625q1.140625 0 1.765625 -0.5625q0.640625 -0.578125 0.640625 -1.4375zm8.2734375 3.34375l0 -0.375q-0.609375 0.3125 -1.34375 0.46875q-0.71875 0.171875 -1.3125 0.171875q-1.28125 0 -2.09375 -0.6875q-0.796875 -0.6875 -0.796875 -1.515625q0 -1.0 1.015625 -1.859375q1.03125 -0.875 2.84375 -0.875q0.734375 0 1.6875 0.15625l0 -0.375q0 -0.359375 -0.3125 -0.578125q-0.3125 -0.234375 -1.171875 -0.234375q-0.71875 0 -1.84375 0.28125q-0.421875 0.09375 -0.65625 0.09375q-0.328125 0 -0.546875 -0.21875q-0.21875 -0.234375 -0.21875 -0.59375q0 -0.203125 0.078125 -0.34375q0.078125 -0.15625 0.21875 -0.25q0.140625 -0.09375 0.578125 -0.21875q0.59375 -0.15625 1.203125 -0.25q0.625 -0.109375 1.125 -0.109375q1.5 0 2.3125 0.65625q0.828125 0.640625 0.828125 1.75l0 3.296875l0.28125 0q0.578125 0 0.8125 0.234375q0.25 0.21875 0.25 0.578125q0 0.34375 -0.25 0.578125q-0.234375 0.21875 -0.8125 0.21875l-1.875 0zm0 -2.875q-0.96875 -0.1875 -1.78125 -0.1875q-0.96875 0 -1.671875 0.484375q-0.4375 0.296875 -0.4375 0.609375q0 0.234375 0.203125 0.375q0.390625 0.25 1.078125 0.25q0.578125 0 1.296875 -0.21875q0.734375 -0.234375 1.3125 -0.625l0 -0.6875zm10.6484375 -3.9375q0.296875 -0.265625 0.59375 -0.265625q0.34375 0 0.5625 0.25q0.234375 0.234375 0.234375 0.8125l0 1.03125q0 0.578125 -0.234375 0.828125q-0.21875 0.234375 -0.578125 0.234375q-0.328125 0 -0.546875 -0.1875q-0.171875 -0.140625 -0.265625 -0.578125q-0.09375 -0.4375 -0.453125 -0.640625q-0.625 -0.375 -1.609375 -0.375q-1.140625 0 -1.828125 0.671875q-0.671875 0.65625 -0.671875 1.671875q0 0.9375 0.65625 1.484375q0.65625 0.53125 2.171875 0.53125q1.0 0 1.640625 -0.203125q0.375 -0.125 0.703125 -0.421875q0.34375 -0.296875 0.609375 -0.296875q0.328125 0 0.5625 0.25q0.25 0.234375 0.25 0.5625q0 0.53125 -0.734375 1.0q-1.078125 0.71875 -3.15625 0.71875q-1.859375 0 -2.90625 -0.78125q-1.40625 -1.03125 -1.40625 -2.84375q0 -1.703125 1.140625 -2.828125q1.140625 -1.125 2.984375 -1.125q0.65625 0 1.21875 0.125q0.578125 0.125 1.0625 0.375zm5.7890625 4.140625l0 2.671875l-1.875 0q-0.578125 0 -0.828125 -0.21875q-0.234375 -0.234375 -0.234375 -0.59375q0 -0.34375 0.25 -0.5625q0.25 -0.234375 0.8125 -0.234375l0.28125 0l0 -6.921875l-0.28125 0q-0.578125 0 -0.828125 -0.21875q-0.234375 -0.234375 -0.234375 -0.59375q0 -0.34375 0.234375 -0.5625q0.25 -0.234375 0.828125 -0.234375l1.875 0l0 5.40625l1.25 -1.015625q-0.1875 -0.328125 -0.1875 -0.546875q0 -0.359375 0.234375 -0.578125q0.25 -0.21875 0.828125 -0.21875l1.828125 0q0.578125 0 0.8125 0.21875q0.25 0.21875 0.25 0.578125q0 0.359375 -0.25 0.578125q-0.234375 0.21875 -0.8125 0.21875l-0.453125 0l-1.9375 1.578125l2.609375 2.3125l0.46875 0q0.578125 0 0.828125 0.234375q0.25 0.21875 0.25 0.578125q0 0.34375 -0.25 0.578125q-0.25 0.21875 -0.828125 0.21875l-1.84375 0q-0.578125 0 -0.828125 -0.21875q-0.234375 -0.234375 -0.234375 -0.59375q0 -0.296875 0.265625 -0.59375l-1.703125 -1.5l-0.296875 0.234375zm14.9453125 -0.0625l-6.578125 0q0.25 0.625 0.890625 1.015625q0.640625 0.375 1.71875 0.375q0.890625 0 2.375 -0.390625q0.609375 -0.15625 0.84375 -0.15625q0.3125 0 0.53125 0.234375q0.21875 0.21875 0.21875 0.5625q0 0.3125 -0.234375 0.53125q-0.3125 0.296875 -1.53125 0.5625q-1.203125 0.265625 -2.3125 0.265625q-1.921875 0 -3.078125 -1.09375q-1.15625 -1.09375 -1.15625 -2.671875q0 -1.6875 1.25 -2.75q1.25 -1.0625 2.875 -1.0625q0.96875 0 1.78125 0.34375q0.828125 0.34375 1.21875 0.75q0.5625 0.578125 0.9375 1.421875q0.25 0.59375 0.25 1.375l0 0.6875zm-1.78125 -1.609375q-0.359375 -0.6875 -0.953125 -1.015625q-0.59375 -0.34375 -1.421875 -0.34375q-0.8125 0 -1.40625 0.34375q-0.59375 0.328125 -0.96875 1.015625l4.75 0zm11.0390625 -5.796875l0 8.53125l0.265625 0q0.578125 0 0.828125 0.234375q0.25 0.21875 0.25 0.578125q0 0.34375 -0.25 0.578125q-0.25 0.21875 -0.828125 0.21875l-1.875 0l0 -0.390625q-0.546875 0.3125 -1.140625 0.484375q-0.59375 0.171875 -1.234375 0.171875q-1.8125 0 -2.921875 -1.046875q-1.09375 -1.046875 -1.09375 -2.609375q0 -1.625 1.15625 -2.765625q1.15625 -1.15625 2.828125 -1.15625q0.625 0 1.21875 0.203125q0.609375 0.1875 1.1875 0.5625l0 -1.984375l-0.265625 0q-0.578125 0 -0.828125 -0.21875q-0.25 -0.234375 -0.25 -0.578125q0 -0.359375 0.25 -0.578125q0.25 -0.234375 0.828125 -0.234375l1.875 0zm-1.609375 6.796875q0 -0.984375 -0.703125 -1.671875q-0.6875 -0.6875 -1.6875 -0.6875q-1.0 0 -1.703125 0.6875q-0.6875 0.6875 -0.6875 1.65625q0 0.875 0.625 1.453125q0.625 0.5625 1.765625 0.5625q1.125 0 1.75 -0.5625q0.640625 -0.578125 0.640625 -1.4375zm9.2890625 -3.28125l0 -0.46875l1.875 0q0.578125 0 0.828125 0.21875q0.25 0.21875 0.25 0.578125q0 0.359375 -0.25 0.578125q-0.25 0.21875 -0.828125 0.21875l-0.265625 0l0 5.84375q0 0.84375 -0.359375 1.46875q-0.359375 0.625 -1.09375 1.078125q-0.734375 0.453125 -1.65625 0.453125l-1.8125 0q-0.578125 0 -0.828125 -0.21875q-0.234375 -0.21875 -0.234375 -0.578125q0 -0.359375 0.234375 -0.578125q0.25 -0.21875 0.828125 -0.21875l1.765625 0q0.734375 0 1.140625 -0.40625q0.40625 -0.390625 0.40625 -1.0l0 -0.796875q-0.53125 0.34375 -1.078125 0.515625q-0.546875 0.1875 -1.125 0.1875q-1.640625 0 -2.75 -1.09375q-1.09375 -1.09375 -1.09375 -2.703125q0 -1.609375 1.09375 -2.6875q1.109375 -1.09375 2.75 -1.09375q0.609375 0 1.15625 0.171875q0.546875 0.171875 1.046875 0.53125zm0 3.078125q0 -0.890625 -0.65625 -1.53125q-0.65625 -0.65625 -1.5625 -0.65625q-0.921875 0 -1.578125 0.65625q-0.640625 0.640625 -0.640625 1.53125q0 0.890625 0.640625 1.53125q0.65625 0.640625 1.578125 0.640625q0.90625 0 1.5625 -0.640625q0.65625 -0.640625 0.65625 -1.53125zm11.8671875 0.8125l-6.578125 0q0.25 0.625 0.890625 1.015625q0.640625 0.375 1.71875 0.375q0.890625 0 2.375 -0.390625q0.609375 -0.15625 0.84375 -0.15625q0.3125 0 0.53125 0.234375q0.21875 0.21875 0.21875 0.5625q0 0.3125 -0.234375 0.53125q-0.3125 0.296875 -1.53125 0.5625q-1.203125 0.265625 -2.3125 0.265625q-1.921875 0 -3.078125 -1.09375q-1.15625 -1.09375 -1.15625 -2.671875q0 -1.6875 1.25 -2.75q1.25 -1.0625 2.875 -1.0625q0.96875 0 1.78125 0.34375q0.828125 0.34375 1.21875 0.75q0.5625 0.578125 0.9375 1.421875q0.25 0.59375 0.25 1.375l0 0.6875zm-1.78125 -1.609375q-0.359375 -0.6875 -0.953125 -1.015625q-0.59375 -0.34375 -1.421875 -0.34375q-0.8125 0 -1.40625 0.34375q-0.59375 0.328125 -0.96875 1.015625l4.75 0z" fill-rule="nonzero"/><path fill="#f4cccc" d="m285.96814 324.87796l0 0c0 -13.385315 10.921417 -24.236237 24.393707 -24.236237l0 0c6.4696045 0 12.674225 2.5534668 17.248932 7.098633c4.574707 4.545166 7.144745 10.709747 7.144745 17.137604l0 0c0 13.385284 -10.921417 24.236206 -24.393677 24.236206l0 0c-13.47229 0 -24.393707 -10.850922 -24.393707 -24.236206zm37.851196 7.2148438c3.2230835 -5.8887634 2.156311 -13.17337 -2.6233826 -17.914215c-4.779724 -4.740814 -12.137726 -5.812439 -18.094696 -2.6353455zm-26.915009 -14.429718l0 0c-3.2230835 5.888794 -2.156311 13.173401 2.6233826 17.914215c4.779724 4.740814 12.137726 5.812439 18.094696 2.6353455z" fill-rule="evenodd"/><path stroke="#595959" stroke-width="1.0" stroke-linejoin="round" stroke-linecap="butt" d="m285.96814 324.87796l0 0c0 -13.385315 10.921417 -24.236237 24.393707 -24.236237l0 0c6.4696045 0 12.674225 2.5534668 17.248932 7.098633c4.574707 4.545166 7.144745 10.709747 7.144745 17.137604l0 0c0 13.385284 -10.921417 24.236206 -24.393677 24.236206l0 0c-13.47229 0 -24.393707 -10.850922 -24.393707 -24.236206zm37.851196 7.2148438c3.2230835 -5.8887634 2.156311 -13.17337 -2.6233826 -17.914215c-4.779724 -4.740814 -12.137726 -5.812439 -18.094696 -2.6353455zm-26.915009 -14.429718l0 0c-3.2230835 5.888794 -2.156311 13.173401 2.6233826 17.914215c4.779724 4.740814 12.137726 5.812439 18.094696 2.6353455z" fill-rule="evenodd"/><path fill="#000000" fill-opacity="0.0" d="m637.0971 240.17879l205.07086 0l0 38.771652l-205.07086 0z" fill-rule="evenodd"/><path fill="#339933" d="m652.3471 264.5388l0 -0.375q-0.609375 0.3125 -1.34375 0.46875q-0.71875 0.171875 -1.3125 0.171875q-1.28125 0 -2.09375 -0.6875q-0.796875 -0.6875 -0.796875 -1.515625q0 -1.0 1.015625 -1.859375q1.03125 -0.875 2.84375 -0.875q0.734375 0 1.6875 0.15625l0 -0.375q0 -0.359375 -0.3125 -0.578125q-0.3125 -0.234375 -1.171875 -0.234375q-0.71875 0 -1.84375 0.28125q-0.421875 0.09375 -0.65625 0.09375q-0.328125 0 -0.546875 -0.21875q-0.21875 -0.234375 -0.21875 -0.59375q0 -0.203125 0.078125 -0.34375q0.078125 -0.15625 0.21875 -0.25q0.140625 -0.09375 0.578125 -0.21875q0.59375 -0.15625 1.203125 -0.25q0.625 -0.109375 1.125 -0.109375q1.5 0 2.3125 0.65625q0.828125 0.640625 0.828125 1.75l0 3.296875l0.28125 0q0.578125 0 0.8125 0.234375q0.25 0.21875 0.25 0.578125q0 0.34375 -0.25 0.578125q-0.234375 0.21875 -0.8125 0.21875l-1.875 0zm0 -2.875q-0.96875 -0.1875 -1.78125 -0.1875q-0.96875 0 -1.671875 0.484375q-0.4375 0.296875 -0.4375 0.609375q0 0.234375 0.203125 0.375q0.390625 0.25 1.078125 0.25q0.578125 0 1.296875 -0.21875q0.734375 -0.234375 1.3125 -0.625l0 -0.6875zm9.8828125 -2.34375q-0.390625 -0.25 -0.828125 -0.359375q-0.421875 -0.125 -0.890625 -0.125q-0.921875 0 -1.46875 0.296875q-0.25 0.140625 -0.25 0.296875q0 0.171875 0.328125 0.34375q0.25 0.125 1.125 0.25q1.59375 0.21875 2.21875 0.4375q0.8125 0.28125 1.25 0.859375q0.453125 0.5625 0.453125 1.203125q0 0.859375 -0.75 1.4375q-1.09375 0.84375 -2.828125 0.84375q-0.6875 0 -1.28125 -0.125q-0.59375 -0.125 -1.078125 -0.359375q-0.125 0.09375 -0.265625 0.15625q-0.125 0.046875 -0.265625 0.046875q-0.375 0 -0.59375 -0.234375q-0.21875 -0.25 -0.21875 -0.828125l0 -0.546875q0 -0.578125 0.21875 -0.8125q0.21875 -0.25 0.578125 -0.25q0.296875 0 0.484375 0.15625q0.203125 0.15625 0.3125 0.546875q0.359375 0.3125 0.875 0.484375q0.515625 0.15625 1.1875 0.15625q1.109375 0 1.71875 -0.34375q0.28125 -0.171875 0.28125 -0.359375q0 -0.3125 -0.40625 -0.515625q-0.421875 -0.203125 -1.71875 -0.34375q-1.921875 -0.203125 -2.578125 -0.78125q-0.640625 -0.578125 -0.640625 -1.40625q0 -0.859375 0.71875 -1.4375q0.984375 -0.78125 2.578125 -0.78125q0.5625 0 1.0625 0.109375q0.515625 0.109375 0.984375 0.328125q0.15625 -0.109375 0.28125 -0.15625q0.125 -0.0625 0.234375 -0.0625q0.328125 0 0.546875 0.25q0.21875 0.234375 0.21875 0.8125l0 0.390625q0 0.53125 -0.125 0.71875q-0.25 0.359375 -0.671875 0.359375q-0.296875 0 -0.515625 -0.171875q-0.21875 -0.1875 -0.28125 -0.484375zm9.6015625 0q-0.390625 -0.25 -0.828125 -0.359375q-0.421875 -0.125 -0.890625 -0.125q-0.921875 0 -1.46875 0.296875q-0.25 0.140625 -0.25 0.296875q0 0.171875 0.328125 0.34375q0.25 0.125 1.125 0.25q1.59375 0.21875 2.21875 0.4375q0.8125 0.28125 1.25 0.859375q0.453125 0.5625 0.453125 1.203125q0 0.859375 -0.75 1.4375q-1.09375 0.84375 -2.828125 0.84375q-0.6875 0 -1.28125 -0.125q-0.59375 -0.125 -1.078125 -0.359375q-0.125 0.09375 -0.265625 0.15625q-0.125 0.046875 -0.265625 0.046875q-0.375 0 -0.59375 -0.234375q-0.21875 -0.25 -0.21875 -0.828125l0 -0.546875q0 -0.578125 0.21875 -0.8125q0.21875 -0.25 0.578125 -0.25q0.296875 0 0.484375 0.15625q0.203125 0.15625 0.3125 0.546875q0.359375 0.3125 0.875 0.484375q0.515625 0.15625 1.1875 0.15625q1.109375 0 1.71875 -0.34375q0.28125 -0.171875 0.28125 -0.359375q0 -0.3125 -0.40625 -0.515625q-0.421875 -0.203125 -1.71875 -0.34375q-1.921875 -0.203125 -2.578125 -0.78125q-0.640625 -0.578125 -0.640625 -1.40625q0 -0.859375 0.71875 -1.4375q0.984375 -0.78125 2.578125 -0.78125q0.5625 0 1.0625 0.109375q0.515625 0.109375 0.984375 0.328125q0.15625 -0.109375 0.28125 -0.15625q0.125 -0.0625 0.234375 -0.0625q0.328125 0 0.546875 0.25q0.21875 0.234375 0.21875 0.8125l0 0.390625q0 0.53125 -0.125 0.71875q-0.25 0.359375 -0.671875 0.359375q-0.296875 0 -0.515625 -0.171875q-0.21875 -0.1875 -0.28125 -0.484375zm11.8984375 2.484375l-6.578125 0q0.25 0.625 0.890625 1.015625q0.640625 0.375 1.71875 0.375q0.890625 0 2.375 -0.390625q0.609375 -0.15625 0.84375 -0.15625q0.3125 0 0.53125 0.234375q0.21875 0.21875 0.21875 0.5625q0 0.3125 -0.234375 0.53125q-0.3125 0.296875 -1.53125 0.5625q-1.203125 0.265625 -2.3125 0.265625q-1.921875 0 -3.078125 -1.09375q-1.15625 -1.09375 -1.15625 -2.671875q0 -1.6875 1.25 -2.75q1.25 -1.0625 2.875 -1.0625q0.96875 0 1.78125 0.34375q0.828125 0.34375 1.21875 0.75q0.5625 0.578125 0.9375 1.421875q0.25 0.59375 0.25 1.375l0 0.6875zm-1.78125 -1.609375q-0.359375 -0.6875 -0.953125 -1.015625q-0.59375 -0.34375 -1.421875 -0.34375q-0.8125 0 -1.40625 0.34375q-0.59375 0.328125 -0.96875 1.015625l4.75 0zm7.0234375 -2.75l0 1.0q1.015625 -0.734375 1.59375 -0.96875q0.578125 -0.25 1.09375 -0.25q0.78125 0 1.515625 0.578125q0.5 0.390625 0.5 0.796875q0 0.34375 -0.25 0.59375q-0.234375 0.234375 -0.5625 0.234375q-0.296875 0 -0.625 -0.296875q-0.328125 -0.296875 -0.59375 -0.296875q-0.328125 0 -1.0 0.421875q-0.671875 0.421875 -1.671875 1.265625l0 2.40625l2.28125 0q0.578125 0 0.828125 0.234375q0.25 0.21875 0.25 0.578125q0 0.34375 -0.25 0.578125q-0.25 0.21875 -0.828125 0.21875l-4.828125 0q-0.578125 0 -0.828125 -0.21875q-0.25 -0.234375 -0.25 -0.59375q0 -0.34375 0.25 -0.5625q0.25 -0.234375 0.828125 -0.234375l0.953125 0l0 -3.890625l-0.578125 0q-0.578125 0 -0.828125 -0.21875q-0.25 -0.21875 -0.25 -0.578125q0 -0.359375 0.25 -0.578125q0.25 -0.21875 0.828125 -0.21875l2.171875 0zm9.5390625 1.59375l0 3.21875q0 0.515625 0.21875 0.671875q0.328125 0.265625 1.171875 0.265625q1.21875 0 2.265625 -0.53125q0.390625 -0.203125 0.625 -0.203125q0.3125 0 0.53125 0.234375q0.234375 0.234375 0.234375 0.578125q0 0.3125 -0.25 0.53125q-0.375 0.375 -1.515625 0.6875q-1.125 0.3125 -1.890625 0.3125q-1.5 0 -2.25 -0.640625q-0.734375 -0.65625 -0.734375 -1.59375l0 -3.53125l-0.578125 0q-0.578125 0 -0.828125 -0.21875q-0.25 -0.21875 -0.25 -0.578125q0 -0.359375 0.25 -0.578125q0.25 -0.21875 0.828125 -0.21875l0.578125 0l0 -1.453125q0 -0.578125 0.21875 -0.8125q0.21875 -0.25 0.578125 -0.25q0.359375 0 0.578125 0.25q0.21875 0.234375 0.21875 0.8125l0 1.453125l2.96875 0q0.578125 0 0.8125 0.21875q0.25 0.21875 0.25 0.578125q0 0.359375 -0.25 0.578125q-0.234375 0.21875 -0.8125 0.21875l-2.96875 0zm9.4296875 1.609375q0 -1.375 0.453125 -2.765625q0.328125 -1.03125 1.03125 -2.296875q0.515625 -0.90625 0.75 -1.109375q0.25 -0.21875 0.546875 -0.21875q0.34375 0 0.578125 0.234375q0.234375 0.234375 0.234375 0.5625q0 0.234375 -0.1875 0.546875q-0.84375 1.375 -1.234375 2.59375q-0.390625 1.203125 -0.390625 2.453125q0 1.25 0.390625 2.46875q0.390625 1.203125 1.234375 2.59375q0.1875 0.296875 0.1875 0.53125q0 0.328125 -0.234375 0.5625q-0.234375 0.234375 -0.578125 0.234375q-0.296875 0 -0.515625 -0.1875q-0.3125 -0.265625 -0.828125 -1.21875q-0.734375 -1.390625 -1.015625 -2.296875q-0.421875 -1.375 -0.421875 -2.6875zm12.6640625 -2.921875q0.296875 -0.265625 0.59375 -0.265625q0.34375 0 0.5625 0.25q0.234375 0.234375 0.234375 0.8125l0 1.03125q0 0.578125 -0.234375 0.828125q-0.21875 0.234375 -0.578125 0.234375q-0.328125 0 -0.546875 -0.1875q-0.171875 -0.140625 -0.265625 -0.578125q-0.09375 -0.4375 -0.453125 -0.640625q-0.625 -0.375 -1.609375 -0.375q-1.140625 0 -1.828125 0.671875q-0.671875 0.65625 -0.671875 1.671875q0 0.9375 0.65625 1.484375q0.65625 0.53125 2.171875 0.53125q1.0 0 1.640625 -0.203125q0.375 -0.125 0.703125 -0.421875q0.34375 -0.296875 0.609375 -0.296875q0.328125 0 0.5625 0.25q0.25 0.234375 0.25 0.5625q0 0.53125 -0.734375 1.0q-1.078125 0.71875 -3.15625 0.71875q-1.859375 0 -2.90625 -0.78125q-1.40625 -1.03125 -1.40625 -2.84375q0 -1.703125 1.140625 -2.828125q1.140625 -1.125 2.984375 -1.125q0.65625 0 1.21875 0.125q0.578125 0.125 1.0625 0.375zm11.2734375 3.390625q0 0.921875 -0.515625 1.796875q-0.515625 0.859375 -1.53125 1.375q-1.0 0.515625 -2.109375 0.515625q-1.09375 0 -2.09375 -0.5q-1.0 -0.515625 -1.53125 -1.375q-0.515625 -0.875 -0.515625 -1.828125q0 -0.953125 0.53125 -1.875q0.53125 -0.9375 1.53125 -1.46875q1.0 -0.53125 2.078125 -0.53125q1.09375 0 2.109375 0.546875q1.015625 0.546875 1.53125 1.46875q0.515625 0.90625 0.515625 1.875zm-1.609375 0.015625q0 -0.78125 -0.546875 -1.421875q-0.765625 -0.875 -2.0 -0.875q-1.078125 0 -1.8125 0.703125q-0.71875 0.6875 -0.71875 1.59375q0 0.75 0.734375 1.40625q0.734375 0.65625 1.796875 0.65625q1.078125 0 1.8125 -0.65625q0.734375 -0.65625 0.734375 -1.40625zm5.4296875 -3.6875l0 0.53125q0.4375 -0.375 0.953125 -0.5625q0.53125 -0.1875 1.15625 -0.1875q1.421875 0 2.25 0.890625q0.65625 0.703125 0.65625 1.84375l0 2.96875q0.5 0 0.734375 0.234375q0.25 0.21875 0.25 0.578125q0 0.34375 -0.25 0.578125q-0.234375 0.21875 -0.8125 0.21875l-1.453125 0q-0.578125 0 -0.828125 -0.21875q-0.234375 -0.234375 -0.234375 -0.59375q0 -0.34375 0.234375 -0.5625q0.25 -0.234375 0.75 -0.234375l0 -3.015625q0 -0.53125 -0.28125 -0.765625q-0.359375 -0.3125 -1.09375 -0.3125q-0.5625 0 -0.984375 0.21875q-0.40625 0.203125 -1.046875 0.90625l0 2.96875q0.609375 0 0.796875 0.125q0.375 0.234375 0.375 0.6875q0 0.34375 -0.25 0.578125q-0.234375 0.21875 -0.8125 0.21875l-1.828125 0q-0.578125 0 -0.828125 -0.21875q-0.234375 -0.234375 -0.234375 -0.59375q0 -0.4375 0.375 -0.671875q0.1875 -0.125 0.796875 -0.125l0 -3.890625q-0.5 0 -0.75 -0.21875q-0.234375 -0.234375 -0.234375 -0.578125q0 -0.359375 0.234375 -0.578125q0.25 -0.21875 0.828125 -0.21875l1.53125 0zm14.8984375 -3.046875l0 8.53125l0.265625 0q0.578125 0 0.828125 0.234375q0.25 0.21875 0.25 0.578125q0 0.34375 -0.25 0.578125q-0.25 0.21875 -0.828125 0.21875l-1.875 0l0 -0.390625q-0.546875 0.3125 -1.140625 0.484375q-0.59375 0.171875 -1.234375 0.171875q-1.8125 0 -2.921875 -1.046875q-1.09375 -1.046875 -1.09375 -2.609375q0 -1.625 1.15625 -2.765625q1.15625 -1.15625 2.828125 -1.15625q0.625 0 1.21875 0.203125q0.609375 0.1875 1.1875 0.5625l0 -1.984375l-0.265625 0q-0.578125 0 -0.828125 -0.21875q-0.25 -0.234375 -0.25 -0.578125q0 -0.359375 0.25 -0.578125q0.25 -0.234375 0.828125 -0.234375l1.875 0zm-1.609375 6.796875q0 -0.984375 -0.703125 -1.671875q-0.6875 -0.6875 -1.6875 -0.6875q-1.0 0 -1.703125 0.6875q-0.6875 0.6875 -0.6875 1.65625q0 0.875 0.625 1.453125q0.625 0.5625 1.765625 0.5625q1.125 0 1.75 -0.5625q0.640625 -0.578125 0.640625 -1.4375zm8.2109375 -0.546875q0 1.359375 -0.453125 2.765625q-0.328125 1.03125 -1.03125 2.296875q-0.515625 0.90625 -0.765625 1.109375q-0.234375 0.21875 -0.53125 0.21875q-0.34375 0 -0.578125 -0.234375q-0.234375 -0.234375 -0.234375 -0.5625q0 -0.234375 0.1875 -0.53125q0.84375 -1.390625 1.234375 -2.59375q0.390625 -1.21875 0.390625 -2.46875q0 -1.25 -0.390625 -2.453125q-0.390625 -1.21875 -1.234375 -2.59375q-0.1875 -0.3125 -0.1875 -0.546875q0 -0.328125 0.234375 -0.5625q0.234375 -0.234375 0.578125 -0.234375q0.296875 0 0.515625 0.1875q0.3125 0.265625 0.828125 1.234375q0.734375 1.375 1.015625 2.265625q0.421875 1.390625 0.421875 2.703125z" fill-rule="nonzero"/></g></svg>