<svg version="1.1" viewBox="0.0 0.0 960.0 540.0" fill="none" stroke="none" stroke-linecap="square" stroke-miterlimit="10" xmlns:xlink="http://www.w3.org/1999/xlink" xmlns="http://www.w3.org/2000/svg"><clipPath id="g1c810400299_0_0.0"><path d="m0 0l960.0 0l0 540.0l-960.0 0l0 -540.0z" clip-rule="nonzero"/></clipPath><g clip-path="url(#g1c810400299_0_0.0)"><path fill="#ffffff" d="m0 0l960.0 0l0 540.0l-960.0 0z" fill-rule="evenodd"/><path fill="#000000" fill-opacity="0.0" d="m143.8793 37.74803l35.653534 0l0 43.622047l-35.653534 0z" fill-rule="evenodd"/><path fill="#000000" d="m167.23868 65.94803l-3.140625 0l-1.25 -3.25l-5.71875 0l-1.1875 3.25l-3.0625 0l5.578125 -14.3125l3.0625 0l5.71875 14.3125zm-5.3125 -5.671875l-1.96875 -5.3125l-1.9375 5.3125l3.90625 0z" fill-rule="nonzero"/><path fill="#000000" fill-opacity="0.0" d="m108.37796 181.75853l107.52756 0l0 38.771652l-107.52756 0z" fill-rule="evenodd"/><path fill="#000000" d="m122.174835 200.61853l0 3.890625l2.28125 0q0.578125 0 0.8125 0.234375q0.25 0.21875 0.25 0.578125q0 0.34375 -0.25 0.578125q-0.234375 0.21875 -0.8125 0.21875l-4.84375 0q-0.578125 0 -0.828125 -0.21875q-0.234375 -0.234375 -0.234375 -0.59375q0 -0.34375 0.234375 -0.5625q0.25 -0.234375 0.828125 -0.234375l0.953125 0l0 -3.890625l-0.765625 0q-0.578125 0 -0.828125 -0.21875q-0.234375 -0.21875 -0.234375 -0.578125q0 -0.359375 0.234375 -0.578125q0.25 -0.21875 0.828125 -0.21875l0.765625 0l0 -0.609375q0 -1.046875 0.78125 -1.734375q0.796875 -0.703125 2.28125 -0.703125q0.671875 0 1.53125 0.125q0.875 0.125 1.125 0.34375q0.25 0.21875 0.25 0.5625q0 0.359375 -0.21875 0.59375q-0.21875 0.234375 -0.546875 0.234375q-0.140625 0 -0.4375 -0.0625q-1.0 -0.1875 -1.765625 -0.1875q-0.796875 0 -1.09375 0.234375q-0.296875 0.234375 -0.296875 0.59375l0 0.609375l2.46875 0q0.578125 0 0.8125 0.21875q0.25 0.21875 0.25 0.578125q0 0.359375 -0.25 0.578125q-0.234375 0.21875 -0.8125 0.21875l-2.46875 0zm13.7734375 2.078125q0 0.921875 -0.515625 1.796875q-0.515625 0.859375 -1.53125 1.375q-1.0 0.515625 -2.109375 0.515625q-1.09375 0 -2.09375 -0.5q-1.0 -0.515625 -1.53125 -1.375q-0.515625 -0.875 -0.515625 -1.828125q0 -0.953125 0.53125 -1.875q0.53125 -0.9375 1.53125 -1.46875q1.0 -0.53125 2.078125 -0.53125q1.09375 0 2.109375 0.546875q1.015625 0.546875 1.53125 1.46875q0.515625 0.90625 0.515625 1.875zm-1.609375 0.015625q0 -0.78125 -0.546875 -1.421875q-0.765625 -0.875 -2.0 -0.875q-1.078125 0 -1.8125 0.703125q-0.71875 0.6875 -0.71875 1.59375q0 0.75 0.734375 1.40625q0.734375 0.65625 1.796875 0.65625q1.078125 0 1.8125 -0.65625q0.734375 -0.65625 0.734375 -1.40625zm6.7109375 -3.6875l0 1.0q1.015625 -0.734375 1.59375 -0.96875q0.578125 -0.25 1.09375 -0.25q0.78125 0 1.515625 0.578125q0.5 0.390625 0.5 0.796875q0 0.34375 -0.25 0.59375q-0.234375 0.234375 -0.5625 0.234375q-0.296875 0 -0.625 -0.296875q-0.328125 -0.296875 -0.59375 -0.296875q-0.328125 0 -1.0 0.421875q-0.671875 0.421875 -1.671875 1.265625l0 2.40625l2.28125 0q0.578125 0 0.828125 0.234375q0.25 0.21875 0.25 0.578125q0 0.34375 -0.25 0.578125q-0.25 0.21875 -0.828125 0.21875l-4.828125 0q-0.578125 0 -0.828125 -0.21875q-0.25 -0.234375 -0.25 -0.59375q0 -0.34375 0.25 -0.5625q0.25 -0.234375 0.828125 -0.234375l0.953125 0l0 -3.890625l-0.578125 0q-0.578125 0 -0.828125 -0.21875q-0.25 -0.21875 -0.25 -0.578125q0 -0.359375 0.25 -0.578125q0.25 -0.21875 0.828125 -0.21875l2.171875 0zm11.1640625 6.28125q0 0.453125 -0.328125 0.765625q-0.3125 0.3125 -0.875 0.3125q-0.5625 0 -0.890625 -0.3125q-0.3125 -0.3125 -0.3125 -0.765625q0 -0.453125 0.3125 -0.75q0.328125 -0.3125 0.890625 -0.3125q0.5625 0 0.875 0.3125q0.328125 0.296875 0.328125 0.75zm10.8671875 -6.0q0.296875 -0.265625 0.59375 -0.265625q0.34375 0 0.5625 0.25q0.234375 0.234375 0.234375 0.8125l0 1.03125q0 0.578125 -0.234375 0.828125q-0.21875 0.234375 -0.578125 0.234375q-0.328125 0 -0.546875 -0.1875q-0.171875 -0.140625 -0.265625 -0.578125q-0.09375 -0.4375 -0.453125 -0.640625q-0.625 -0.375 -1.609375 -0.375q-1.140625 0 -1.828125 0.671875q-0.671875 0.65625 -0.671875 1.671875q0 0.9375 0.65625 1.484375q0.65625 0.53125 2.171875 0.53125q1.0 0 1.640625 -0.203125q0.375 -0.125 0.703125 -0.421875q0.34375 -0.296875 0.609375 -0.296875q0.328125 0 0.5625 0.25q0.25 0.234375 0.25 0.5625q0 0.53125 -0.734375 1.0q-1.078125 0.71875 -3.15625 0.71875q-1.859375 0 -2.90625 -0.78125q-1.40625 -1.03125 -1.40625 -2.84375q0 -1.703125 1.140625 -2.828125q1.140625 -1.125 2.984375 -1.125q0.65625 0 1.21875 0.125q0.578125 0.125 1.0625 0.375zm11.2734375 3.390625q0 0.921875 -0.515625 1.796875q-0.515625 0.859375 -1.53125 1.375q-1.0 0.515625 -2.109375 0.515625q-1.09375 0 -2.09375 -0.5q-1.0 -0.515625 -1.53125 -1.375q-0.515625 -0.875 -0.515625 -1.828125q0 -0.953125 0.53125 -1.875q0.53125 -0.9375 1.53125 -1.46875q1.0 -0.53125 2.078125 -0.53125q1.09375 0 2.109375 0.546875q1.015625 0.546875 1.53125 1.46875q0.515625 0.90625 0.515625 1.875zm-1.609375 0.015625q0 -0.78125 -0.546875 -1.421875q-0.765625 -0.875 -2.0 -0.875q-1.078125 0 -1.8125 0.703125q-0.71875 0.6875 -0.71875 1.59375q0 0.75 0.734375 1.40625q0.734375 0.65625 1.796875 0.65625q1.078125 0 1.8125 -0.65625q0.734375 -0.65625 0.734375 -1.40625zm5.4296875 -3.6875l0 0.53125q0.4375 -0.375 0.953125 -0.5625q0.53125 -0.1875 1.15625 -0.1875q1.421875 0 2.25 0.890625q0.65625 0.703125 0.65625 1.84375l0 2.96875q0.5 0 0.734375 0.234375q0.25 0.21875 0.25 0.578125q0 0.34375 -0.25 0.578125q-0.234375 0.21875 -0.8125 0.21875l-1.453125 0q-0.578125 0 -0.828125 -0.21875q-0.234375 -0.234375 -0.234375 -0.59375q0 -0.34375 0.234375 -0.5625q0.25 -0.234375 0.75 -0.234375l0 -3.015625q0 -0.53125 -0.28125 -0.765625q-0.359375 -0.3125 -1.09375 -0.3125q-0.5625 0 -0.984375 0.21875q-0.40625 0.203125 -1.046875 0.90625l0 2.96875q0.609375 0 0.796875 0.125q0.375 0.234375 0.375 0.6875q0 0.34375 -0.25 0.578125q-0.234375 0.21875 -0.8125 0.21875l-1.828125 0q-0.578125 0 -0.828125 -0.21875q-0.234375 -0.234375 -0.234375 -0.59375q0 -0.4375 0.375 -0.671875q0.1875 -0.125 0.796875 -0.125l0 -3.890625q-0.5 0 -0.75 -0.21875q-0.234375 -0.234375 -0.234375 -0.578125q0 -0.359375 0.234375 -0.578125q0.25 -0.21875 0.828125 -0.21875l1.53125 0zm14.8984375 -3.046875l0 8.53125l0.265625 0q0.578125 0 0.828125 0.234375q0.25 0.21875 0.25 0.578125q0 0.34375 -0.25 0.578125q-0.25 0.21875 -0.828125 0.21875l-1.875 0l0 -0.390625q-0.546875 0.3125 -1.140625 0.484375q-0.59375 0.171875 -1.234375 0.171875q-1.8125 0 -2.921875 -1.046875q-1.09375 -1.046875 -1.09375 -2.609375q0 -1.625 1.15625 -2.765625q1.15625 -1.15625 2.828125 -1.15625q0.625 0 1.21875 0.203125q0.609375 0.1875 1.1875 0.5625l0 -1.984375l-0.265625 0q-0.578125 0 -0.828125 -0.21875q-0.25 -0.234375 -0.25 -0.578125q0 -0.359375 0.25 -0.578125q0.25 -0.234375 0.828125 -0.234375l1.875 0zm-1.609375 6.796875q0 -0.984375 -0.703125 -1.671875q-0.6875 -0.6875 -1.6875 -0.6875q-1.0 0 -1.703125 0.6875q-0.6875 0.6875 -0.6875 1.65625q0 0.875 0.625 1.453125q0.625 0.5625 1.765625 0.5625q1.125 0 1.75 -0.5625q0.640625 -0.578125 0.640625 -1.4375z" fill-rule="nonzero"/><path fill="#000000" fill-opacity="0.0" d="m112.0525 421.13647l99.30709 0l0 38.771667l-99.30709 0z" fill-rule="evenodd"/><path fill="#000000" d="m125.84937 439.9965l0 3.890625l2.2812424 0q0.578125 0 0.8125 0.234375q0.25 0.21875 0.25 0.578125q0 0.34375 -0.25 0.578125q-0.234375 0.21875 -0.8125 0.21875l-4.8437424 0q-0.578125 0 -0.828125 -0.21875q-0.234375 -0.234375 -0.234375 -0.59375q0 -0.34375 0.234375 -0.5625q0.25 -0.234375 0.828125 -0.234375l0.953125 0l0 -3.890625l-0.765625 0q-0.578125 0 -0.828125 -0.21875q-0.234375 -0.21875 -0.234375 -0.578125q0 -0.359375 0.234375 -0.578125q0.25 -0.21875 0.828125 -0.21875l0.765625 0l0 -0.609375q0 -1.046875 0.78125 -1.734375q0.796875 -0.703125 2.28125 -0.703125q0.671875 0 1.5312424 0.125q0.875 0.125 1.125 0.34375q0.25 0.21875 0.25 0.5625q0 0.359375 -0.21875 0.59375q-0.21875 0.234375 -0.546875 0.234375q-0.140625 0 -0.4375 -0.0625q-1.0 -0.1875 -1.7656174 -0.1875q-0.796875 0 -1.09375 0.234375q-0.296875 0.234375 -0.296875 0.59375l0 0.609375l2.4687424 0q0.578125 0 0.8125 0.21875q0.25 0.21875 0.25 0.578125q0 0.359375 -0.25 0.578125q-0.234375 0.21875 -0.8125 0.21875l-2.4687424 0zm13.77343 2.078125q0 0.921875 -0.515625 1.796875q-0.515625 0.859375 -1.53125 1.375q-1.0 0.515625 -2.109375 0.515625q-1.09375 0 -2.09375 -0.5q-1.0 -0.515625 -1.53125 -1.375q-0.515625 -0.875 -0.515625 -1.828125q0 -0.953125 0.53125 -1.875q0.53125 -0.9375 1.53125 -1.46875q1.0 -0.53125 2.078125 -0.53125q1.09375 0 2.109375 0.546875q1.015625 0.546875 1.53125 1.46875q0.515625 0.90625 0.515625 1.875zm-1.609375 0.015625q0 -0.78125 -0.546875 -1.421875q-0.765625 -0.875 -2.0 -0.875q-1.078125 0 -1.8125 0.703125q-0.71875 0.6875 -0.71875 1.59375q0 0.75 0.734375 1.40625q0.734375 0.65625 1.796875 0.65625q1.078125 0 1.8125 -0.65625q0.734375 -0.65625 0.734375 -1.40625zm6.7109375 -3.6875l0 1.0q1.015625 -0.734375 1.59375 -0.96875q0.578125 -0.25 1.09375 -0.25q0.78125 0 1.515625 0.578125q0.5 0.390625 0.5 0.796875q0 0.34375 -0.25 0.59375q-0.234375 0.234375 -0.5625 0.234375q-0.296875 0 -0.625 -0.296875q-0.328125 -0.296875 -0.59375 -0.296875q-0.328125 0 -1.0 0.421875q-0.671875 0.421875 -1.671875 1.265625l0 2.40625l2.28125 0q0.578125 0 0.828125 0.234375q0.25 0.21875 0.25 0.578125q0 0.34375 -0.25 0.578125q-0.25 0.21875 -0.828125 0.21875l-4.828125 0q-0.578125 0 -0.828125 -0.21875q-0.25 -0.234375 -0.25 -0.59375q0 -0.34375 0.25 -0.5625q0.25 -0.234375 0.828125 -0.234375l0.953125 0l0 -3.890625l-0.578125 0q-0.578125 0 -0.828125 -0.21875q-0.25 -0.21875 -0.25 -0.578125q0 -0.359375 0.25 -0.578125q0.25 -0.21875 0.828125 -0.21875l2.171875 0zm11.1640625 6.28125q0 0.453125 -0.328125 0.765625q-0.3125 0.3125 -0.875 0.3125q-0.5625 0 -0.890625 -0.3125q-0.3125 -0.3125 -0.3125 -0.765625q0 -0.453125 0.3125 -0.75q0.328125 -0.3125 0.890625 -0.3125q0.5625 0 0.875 0.3125q0.328125 0.296875 0.328125 0.75zm6.3515625 -9.328125l0 3.59375q0.59375 -0.375 1.1875 -0.5625q0.609375 -0.203125 1.234375 -0.203125q1.65625 0 2.8125 1.15625q1.15625 1.140625 1.15625 2.765625q0 1.5625 -1.109375 2.609375q-1.09375 1.046875 -2.890625 1.046875q-0.640625 0 -1.234375 -0.171875q-0.59375 -0.171875 -1.15625 -0.484375l0 0.390625l-1.875 0q-0.578125 0 -0.828125 -0.21875q-0.25 -0.234375 -0.25 -0.59375q0 -0.34375 0.25 -0.5625q0.265625 -0.234375 0.828125 -0.234375l0.28125 0l0 -6.921875l-0.28125 0q-0.578125 0 -0.828125 -0.21875q-0.25 -0.234375 -0.25 -0.59375q0 -0.34375 0.25 -0.5625q0.25 -0.234375 0.828125 -0.234375l1.875 0zm4.796875 6.796875q0 -0.984375 -0.703125 -1.671875q-0.6875 -0.6875 -1.703125 -0.6875q-1.0 0 -1.703125 0.6875q-0.6875 0.6875 -0.6875 1.65625q0 0.875 0.625 1.453125q0.625 0.5625 1.765625 0.5625q1.140625 0 1.765625 -0.5625q0.640625 -0.578125 0.640625 -1.4375zm10.9921875 -0.078125q0 0.921875 -0.515625 1.796875q-0.515625 0.859375 -1.53125 1.375q-1.0 0.515625 -2.109375 0.515625q-1.09375 0 -2.09375 -0.5q-1.0 -0.515625 -1.53125 -1.375q-0.515625 -0.875 -0.515625 -1.828125q0 -0.953125 0.53125 -1.875q0.53125 -0.9375 1.53125 -1.46875q1.0 -0.53125 2.078125 -0.53125q1.09375 0 2.109375 0.546875q1.015625 0.546875 1.53125 1.46875q0.515625 0.90625 0.515625 1.875zm-1.609375 0.015625q0 -0.78125 -0.546875 -1.421875q-0.765625 -0.875 -2.0 -0.875q-1.078125 0 -1.8125 0.703125q-0.71875 0.6875 -0.71875 1.59375q0 0.75 0.734375 1.40625q0.734375 0.65625 1.796875 0.65625q1.078125 0 1.8125 -0.65625q0.734375 -0.65625 0.734375 -1.40625zm10.7265625 -6.734375l0 8.53125l0.265625 0q0.578125 0 0.828125 0.234375q0.25 0.21875 0.25 0.578125q0 0.34375 -0.25 0.578125q-0.25 0.21875 -0.828125 0.21875l-1.875 0l0 -0.390625q-0.546875 0.3125 -1.140625 0.484375q-0.59375 0.171875 -1.234375 0.171875q-1.8125 0 -2.921875 -1.046875q-1.09375 -1.046875 -1.09375 -2.609375q0 -1.625 1.15625 -2.765625q1.15625 -1.15625 2.828125 -1.15625q0.625 0 1.21875 0.203125q0.609375 0.1875 1.1875 0.5625l0 -1.984375l-0.265625 0q-0.578125 0 -0.828125 -0.21875q-0.25 -0.234375 -0.25 -0.578125q0 -0.359375 0.25 -0.578125q0.25 -0.234375 0.828125 -0.234375l1.875 0zm-1.609375 6.796875q0 -0.984375 -0.703125 -1.671875q-0.6875 -0.6875 -1.6875 -0.6875q-1.0 0 -1.703125 0.6875q-0.6875 0.6875 -0.6875 1.65625q0 0.875 0.625 1.453125q0.625 0.5625 1.765625 0.5625q1.125 0 1.75 -0.5625q0.640625 -0.578125 0.640625 -1.4375zm6.6328125 3.28125l-2.765625 -5.4375q-0.390625 -0.046875 -0.59375 -0.265625q-0.203125 -0.21875 -0.203125 -0.53125q0 -0.359375 0.234375 -0.578125q0.25 -0.21875 0.828125 -0.21875l1.46875 0q0.578125 0 0.8125 0.21875q0.25 0.21875 0.25 0.578125q0 0.359375 -0.25 0.578125q-0.234375 0.21875 -0.765625 0.21875l1.890625 3.6875l1.875 -3.6875q-0.515625 0 -0.765625 -0.21875q-0.25 -0.21875 -0.25 -0.578125q0 -0.359375 0.25 -0.578125q0.25 -0.21875 0.828125 -0.21875l1.5 0q0.578125 0 0.8125 0.21875q0.25 0.21875 0.25 0.578125q0 0.328125 -0.21875 0.546875q-0.203125 0.21875 -0.609375 0.25l-3.671875 7.25q0.59375 0 0.78125 0.109375q0.375 0.25 0.375 0.6875q0 0.359375 -0.25 0.578125q-0.234375 0.21875 -0.8125 0.21875l-3.5 0q-0.578125 0 -0.828125 -0.21875q-0.234375 -0.21875 -0.234375 -0.578125q0 -0.359375 0.234375 -0.578125q0.25 -0.21875 0.828125 -0.21875l1.59375 0l0.90625 -1.8125z" fill-rule="nonzero"/><path fill="#000000" fill-opacity="0.0" d="m384.37842 421.13507l157.79529 0l0 38.771667l-157.79529 0z" fill-rule="evenodd"/><path fill="#000000" d="m398.1753 439.9951l0 3.890625l2.28125 0q0.578125 0 0.8125 0.234375q0.25 0.21875 0.25 0.578125q0 0.34375 -0.25 0.578125q-0.234375 0.21875 -0.8125 0.21875l-4.84375 0q-0.578125 0 -0.828125 -0.21875q-0.234375 -0.234375 -0.234375 -0.59375q0 -0.34375 0.234375 -0.5625q0.25 -0.234375 0.828125 -0.234375l0.953125 0l0 -3.890625l-0.765625 0q-0.578125 0 -0.828125 -0.21875q-0.234375 -0.21875 -0.234375 -0.578125q0 -0.359375 0.234375 -0.578125q0.25 -0.21875 0.828125 -0.21875l0.765625 0l0 -0.609375q0 -1.046875 0.78125 -1.734375q0.796875 -0.703125 2.28125 -0.703125q0.671875 0 1.53125 0.125q0.875 0.125 1.125 0.34375q0.25 0.21875 0.25 0.5625q0 0.359375 -0.21875 0.59375q-0.21875 0.234375 -0.546875 0.234375q-0.140625 0 -0.4375 -0.0625q-1.0 -0.1875 -1.765625 -0.1875q-0.796875 0 -1.09375 0.234375q-0.296875 0.234375 -0.296875 0.59375l0 0.609375l2.46875 0q0.578125 0 0.8125 0.21875q0.25 0.21875 0.25 0.578125q0 0.359375 -0.25 0.578125q-0.234375 0.21875 -0.8125 0.21875l-2.46875 0zm13.7734375 2.078125q0 0.921875 -0.515625 1.796875q-0.515625 0.859375 -1.53125 1.375q-1.0 0.515625 -2.109375 0.515625q-1.09375 0 -2.09375 -0.5q-1.0 -0.515625 -1.53125 -1.375q-0.515625 -0.875 -0.515625 -1.828125q0 -0.953125 0.53125 -1.875q0.53125 -0.9375 1.53125 -1.46875q1.0 -0.53125 2.078125 -0.53125q1.09375 0 2.109375 0.546875q1.015625 0.546875 1.53125 1.46875q0.515625 0.90625 0.515625 1.875zm-1.609375 0.015625q0 -0.78125 -0.546875 -1.421875q-0.765625 -0.875 -2.0 -0.875q-1.078125 0 -1.8125 0.703125q-0.71875 0.6875 -0.71875 1.59375q0 0.75 0.734375 1.40625q0.734375 0.65625 1.796875 0.65625q1.078125 0 1.8125 -0.65625q0.734375 -0.65625 0.734375 -1.40625zm6.7109375 -3.6875l0 1.0q1.015625 -0.734375 1.59375 -0.96875q0.578125 -0.25 1.09375 -0.25q0.78125 0 1.515625 0.578125q0.5 0.390625 0.5 0.796875q0 0.34375 -0.25 0.59375q-0.234375 0.234375 -0.5625 0.234375q-0.296875 0 -0.625 -0.296875q-0.328125 -0.296875 -0.59375 -0.296875q-0.328125 0 -1.0 0.421875q-0.671875 0.421875 -1.671875 1.265625l0 2.40625l2.28125 0q0.578125 0 0.828125 0.234375q0.25 0.21875 0.25 0.578125q0 0.34375 -0.25 0.578125q-0.25 0.21875 -0.828125 0.21875l-4.828125 0q-0.578125 0 -0.828125 -0.21875q-0.25 -0.234375 -0.25 -0.59375q0 -0.34375 0.25 -0.5625q0.25 -0.234375 0.828125 -0.234375l0.953125 0l0 -3.890625l-0.578125 0q-0.578125 0 -0.828125 -0.21875q-0.25 -0.21875 -0.25 -0.578125q0 -0.359375 0.25 -0.578125q0.25 -0.21875 0.828125 -0.21875l2.171875 0zm11.1640625 6.28125q0 0.453125 -0.328125 0.765625q-0.3125 0.3125 -0.875 0.3125q-0.5625 0 -0.890625 -0.3125q-0.3125 -0.3125 -0.3125 -0.765625q0 -0.453125 0.3125 -0.75q0.328125 -0.3125 0.890625 -0.3125q0.5625 0 0.875 0.3125q0.328125 0.296875 0.328125 0.75zm8.9453125 -9.328125l0 1.703125l-1.90625 0l0 -1.703125l1.90625 0zm0.21875 3.046875l0 5.484375l1.921875 0q0.578125 0 0.828125 0.234375q0.25 0.21875 0.25 0.578125q0 0.34375 -0.25 0.578125q-0.25 0.21875 -0.828125 0.21875l-5.4375 0q-0.578125 0 -0.828125 -0.21875q-0.25 -0.234375 -0.25 -0.59375q0 -0.34375 0.25 -0.5625q0.25 -0.234375 0.828125 -0.234375l1.921875 0l0 -3.890625l-1.296875 0q-0.5625 0 -0.8125 -0.21875q-0.25 -0.21875 -0.25 -0.578125q0 -0.359375 0.234375 -0.578125q0.25 -0.21875 0.828125 -0.21875l2.890625 0zm7.1953125 0l0 0.53125q0.4375 -0.375 0.953125 -0.5625q0.53125 -0.1875 1.15625 -0.1875q1.421875 0 2.25 0.890625q0.65625 0.703125 0.65625 1.84375l0 2.96875q0.5 0 0.734375 0.234375q0.25 0.21875 0.25 0.578125q0 0.34375 -0.25 0.578125q-0.234375 0.21875 -0.8125 0.21875l-1.453125 0q-0.578125 0 -0.828125 -0.21875q-0.234375 -0.234375 -0.234375 -0.59375q0 -0.34375 0.234375 -0.5625q0.25 -0.234375 0.75 -0.234375l0 -3.015625q0 -0.53125 -0.28125 -0.765625q-0.359375 -0.3125 -1.09375 -0.3125q-0.5625 0 -0.984375 0.21875q-0.40625 0.203125 -1.046875 0.90625l0 2.96875q0.609375 0 0.796875 0.125q0.375 0.234375 0.375 0.6875q0 0.34375 -0.25 0.578125q-0.234375 0.21875 -0.8125 0.21875l-1.828125 0q-0.578125 0 -0.828125 -0.21875q-0.234375 -0.234375 -0.234375 -0.59375q0 -0.4375 0.375 -0.671875q0.1875 -0.125 0.796875 -0.125l0 -3.890625q-0.5 0 -0.75 -0.21875q-0.234375 -0.234375 -0.234375 -0.578125q0 -0.359375 0.234375 -0.578125q0.25 -0.21875 0.828125 -0.21875l1.53125 0zm13.7109375 0.28125q0.296875 -0.265625 0.59375 -0.265625q0.34375 0 0.5625 0.25q0.234375 0.234375 0.234375 0.8125l0 1.03125q0 0.578125 -0.234375 0.828125q-0.21875 0.234375 -0.578125 0.234375q-0.328125 0 -0.546875 -0.1875q-0.171875 -0.140625 -0.265625 -0.578125q-0.09375 -0.4375 -0.453125 -0.640625q-0.625 -0.375 -1.609375 -0.375q-1.140625 0 -1.828125 0.671875q-0.671875 0.65625 -0.671875 1.671875q0 0.9375 0.65625 1.484375q0.65625 0.53125 2.171875 0.53125q1.0 0 1.640625 -0.203125q0.375 -0.125 0.703125 -0.421875q0.34375 -0.296875 0.609375 -0.296875q0.328125 0 0.5625 0.25q0.25 0.234375 0.25 0.5625q0 0.53125 -0.734375 1.0q-1.078125 0.71875 -3.15625 0.71875q-1.859375 0 -2.90625 -0.78125q-1.40625 -1.03125 -1.40625 -2.84375q0 -1.703125 1.140625 -2.828125q1.140625 -1.125 2.984375 -1.125q0.65625 0 1.21875 0.125q0.578125 0.125 1.0625 0.375z" fill-rule="nonzero"/><path fill="#000000" fill-opacity="0.0" d="m385.2994 181.75853l94.70865 0l0 38.771652l-94.70865 0z" fill-rule="evenodd"/><path fill="#000000" d="m399.09628 200.61853l0 3.890625l2.28125 0q0.578125 0 0.8125 0.234375q0.25 0.21875 0.25 0.578125q0 0.34375 -0.25 0.578125q-0.234375 0.21875 -0.8125 0.21875l-4.84375 0q-0.578125 0 -0.828125 -0.21875q-0.234375 -0.234375 -0.234375 -0.59375q0 -0.34375 0.234375 -0.5625q0.25 -0.234375 0.828125 -0.234375l0.953125 0l0 -3.890625l-0.765625 0q-0.578125 0 -0.828125 -0.21875q-0.234375 -0.21875 -0.234375 -0.578125q0 -0.359375 0.234375 -0.578125q0.25 -0.21875 0.828125 -0.21875l0.765625 0l0 -0.609375q0 -1.046875 0.78125 -1.734375q0.796875 -0.703125 2.28125 -0.703125q0.671875 0 1.53125 0.125q0.875 0.125 1.125 0.34375q0.25 0.21875 0.25 0.5625q0 0.359375 -0.21875 0.59375q-0.21875 0.234375 -0.546875 0.234375q-0.140625 0 -0.4375 -0.0625q-1.0 -0.1875 -1.765625 -0.1875q-0.796875 0 -1.09375 0.234375q-0.296875 0.234375 -0.296875 0.59375l0 0.609375l2.46875 0q0.578125 0 0.8125 0.21875q0.25 0.21875 0.25 0.578125q0 0.359375 -0.25 0.578125q-0.234375 0.21875 -0.8125 0.21875l-2.46875 0zm13.7734375 2.078125q0 0.921875 -0.515625 1.796875q-0.515625 0.859375 -1.53125 1.375q-1.0 0.515625 -2.109375 0.515625q-1.09375 0 -2.09375 -0.5q-1.0 -0.515625 -1.53125 -1.375q-0.515625 -0.875 -0.515625 -1.828125q0 -0.953125 0.53125 -1.875q0.53125 -0.9375 1.53125 -1.46875q1.0 -0.53125 2.078125 -0.53125q1.09375 0 2.109375 0.546875q1.015625 0.546875 1.53125 1.46875q0.515625 0.90625 0.515625 1.875zm-1.609375 0.015625q0 -0.78125 -0.546875 -1.421875q-0.765625 -0.875 -2.0 -0.875q-1.078125 0 -1.8125 0.703125q-0.71875 0.6875 -0.71875 1.59375q0 0.75 0.734375 1.40625q0.734375 0.65625 1.796875 0.65625q1.078125 0 1.8125 -0.65625q0.734375 -0.65625 0.734375 -1.40625zm6.7109375 -3.6875l0 1.0q1.015625 -0.734375 1.59375 -0.96875q0.578125 -0.25 1.09375 -0.25q0.78125 0 1.515625 0.578125q0.5 0.390625 0.5 0.796875q0 0.34375 -0.25 0.59375q-0.234375 0.234375 -0.5625 0.234375q-0.296875 0 -0.625 -0.296875q-0.328125 -0.296875 -0.59375 -0.296875q-0.328125 0 -1.0 0.421875q-0.671875 0.421875 -1.671875 1.265625l0 2.40625l2.28125 0q0.578125 0 0.828125 0.234375q0.25 0.21875 0.25 0.578125q0 0.34375 -0.25 0.578125q-0.25 0.21875 -0.828125 0.21875l-4.828125 0q-0.578125 0 -0.828125 -0.21875q-0.25 -0.234375 -0.25 -0.59375q0 -0.34375 0.25 -0.5625q0.25 -0.234375 0.828125 -0.234375l0.953125 0l0 -3.890625l-0.578125 0q-0.578125 0 -0.828125 -0.21875q-0.25 -0.21875 -0.25 -0.578125q0 -0.359375 0.25 -0.578125q0.25 -0.21875 0.828125 -0.21875l2.171875 0zm11.1640625 6.28125q0 0.453125 -0.328125 0.765625q-0.3125 0.3125 -0.875 0.3125q-0.5625 0 -0.890625 -0.3125q-0.3125 -0.3125 -0.3125 -0.765625q0 -0.453125 0.3125 -0.75q0.328125 -0.3125 0.890625 -0.3125q0.5625 0 0.875 0.3125q0.328125 0.296875 0.328125 0.75zm12.3984375 -1.921875l-6.578125 0q0.25 0.625 0.890625 1.015625q0.640625 0.375 1.71875 0.375q0.890625 0 2.375 -0.390625q0.609375 -0.15625 0.84375 -0.15625q0.3125 0 0.53125 0.234375q0.21875 0.21875 0.21875 0.5625q0 0.3125 -0.234375 0.53125q-0.3125 0.296875 -1.53125 0.5625q-1.203125 0.265625 -2.3125 0.265625q-1.921875 0 -3.078125 -1.09375q-1.15625 -1.09375 -1.15625 -2.671875q0 -1.6875 1.25 -2.75q1.25 -1.0625 2.875 -1.0625q0.96875 0 1.78125 0.34375q0.828125 0.34375 1.21875 0.75q0.5625 0.578125 0.9375 1.421875q0.25 0.59375 0.25 1.375l0 0.6875zm-1.78125 -1.609375q-0.359375 -0.6875 -0.953125 -1.015625q-0.59375 -0.34375 -1.421875 -0.34375q-0.8125 0 -1.40625 0.34375q-0.59375 0.328125 -0.96875 1.015625l4.75 0zm5.7421875 -2.75l0 0.53125q0.4375 -0.375 0.953125 -0.5625q0.53125 -0.1875 1.15625 -0.1875q1.421875 0 2.25 0.890625q0.65625 0.703125 0.65625 1.84375l0 2.96875q0.5 0 0.734375 0.234375q0.25 0.21875 0.25 0.578125q0 0.34375 -0.25 0.578125q-0.234375 0.21875 -0.8125 0.21875l-1.453125 0q-0.578125 0 -0.828125 -0.21875q-0.234375 -0.234375 -0.234375 -0.59375q0 -0.34375 0.234375 -0.5625q0.25 -0.234375 0.75 -0.234375l0 -3.015625q0 -0.53125 -0.28125 -0.765625q-0.359375 -0.3125 -1.09375 -0.3125q-0.5625 0 -0.984375 0.21875q-0.40625 0.203125 -1.046875 0.90625l0 2.96875q0.609375 0 0.796875 0.125q0.375 0.234375 0.375 0.6875q0 0.34375 -0.25 0.578125q-0.234375 0.21875 -0.8125 0.21875l-1.828125 0q-0.578125 0 -0.828125 -0.21875q-0.234375 -0.234375 -0.234375 -0.59375q0 -0.4375 0.375 -0.671875q0.1875 -0.125 0.796875 -0.125l0 -3.890625q-0.5 0 -0.75 -0.21875q-0.234375 -0.234375 -0.234375 -0.578125q0 -0.359375 0.234375 -0.578125q0.25 -0.21875 0.828125 -0.21875l1.53125 0zm14.8984375 -3.046875l0 8.53125l0.265625 0q0.578125 0 0.828125 0.234375q0.25 0.21875 0.25 0.578125q0 0.34375 -0.25 0.578125q-0.25 0.21875 -0.828125 0.21875l-1.875 0l0 -0.390625q-0.546875 0.3125 -1.140625 0.484375q-0.59375 0.171875 -1.234375 0.171875q-1.8125 0 -2.921875 -1.046875q-1.09375 -1.046875 -1.09375 -2.609375q0 -1.625 1.15625 -2.765625q1.15625 -1.15625 2.828125 -1.15625q0.625 0 1.21875 0.203125q0.609375 0.1875 1.1875 0.5625l0 -1.984375l-0.265625 0q-0.578125 0 -0.828125 -0.21875q-0.25 -0.234375 -0.25 -0.578125q0 -0.359375 0.25 -0.578125q0.25 -0.234375 0.828125 -0.234375l1.875 0zm-1.609375 6.796875q0 -0.984375 -0.703125 -1.671875q-0.6875 -0.6875 -1.6875 -0.6875q-1.0 0 -1.703125 0.6875q-0.6875 0.6875 -0.6875 1.65625q0 0.875 0.625 1.453125q0.625 0.5625 1.765625 0.5625q1.125 0 1.75 -0.5625q0.640625 -0.578125 0.640625 -1.4375z" fill-rule="nonzero"/><path fill="#000000" fill-opacity="0.0" d="m764.3986 178.97528l51.873962 0l0 43.62204l-51.873962 0z" fill-rule="evenodd"/><path fill="#000000" d="m774.8674 192.86278l5.71875 0q1.703125 0 2.53125 0.140625q0.84375 0.140625 1.5 0.59375q0.65625 0.4375 1.09375 1.1875q0.4375 0.75 0.4375 1.671875q0 1.015625 -0.546875 1.859375q-0.53125 0.828125 -1.453125 1.25q1.296875 0.375 2.0 1.296875q0.703125 0.921875 0.703125 2.15625q0 0.984375 -0.453125 1.90625q-0.453125 0.921875 -1.234375 1.484375q-0.78125 0.546875 -1.9375 0.671875q-0.71875 0.078125 -3.484375 0.09375l-4.875 0l0 -14.3125zm2.890625 2.375l0 3.3125l1.890625 0q1.6875 0 2.09375 -0.046875q0.75 -0.09375 1.171875 -0.515625q0.421875 -0.421875 0.421875 -1.109375q0 -0.671875 -0.375 -1.078125q-0.359375 -0.421875 -1.078125 -0.515625q-0.421875 -0.046875 -2.46875 -0.046875l-1.65625 0zm0 5.703125l0 3.828125l2.671875 0q1.5625 0 1.984375 -0.09375q0.640625 -0.125 1.046875 -0.578125q0.40625 -0.453125 0.40625 -1.203125q0 -0.65625 -0.3125 -1.09375q-0.3125 -0.453125 -0.90625 -0.65625q-0.59375 -0.203125 -2.5625 -0.203125l-2.328125 0z" fill-rule="nonzero"/><path fill="#000000" fill-opacity="0.0" d="m161.70607 81.37008l0.4409485 100.37795" fill-rule="evenodd"/><path stroke="#595959" stroke-width="1.0" stroke-linejoin="round" stroke-linecap="butt" d="m161.70607 81.37008l0.4145813 94.37801" fill-rule="evenodd"/><path fill="#595959" stroke="#595959" stroke-width="1.0" stroke-linecap="butt" d="m160.46893 175.75534l1.6716614 4.5308075l1.6317749 -4.5453186z" fill-rule="evenodd"/><path fill="#000000" fill-opacity="0.0" d="m162.14174 220.53018l-0.44093323 200.59842" fill-rule="evenodd"/><path stroke="#595959" stroke-width="1.0" stroke-linejoin="round" stroke-linecap="butt" d="m162.14174 220.53018l-0.42774963 194.59842" fill-rule="evenodd"/><path fill="#595959" stroke="#595959" stroke-width="1.0" stroke-linecap="butt" d="m160.06226 415.125l1.6417542 4.5417175l1.6616974 -4.5344543z" fill-rule="evenodd"/><path fill="#000000" fill-opacity="0.0" d="m211.35959 440.5223l173.00787 0" fill-rule="evenodd"/><path stroke="#595959" stroke-width="1.0" stroke-linejoin="round" stroke-linecap="butt" d="m211.35957 440.5223l167.00789 0" fill-rule="evenodd"/><path fill="#595959" stroke="#595959" stroke-width="1.0" stroke-linecap="butt" d="m378.36746 442.17404l4.538086 -1.6517334l-4.538086 -1.6517334z" fill-rule="evenodd"/><path fill="#000000" fill-opacity="0.0" d="m392.33817 423.1873l-156.7874 -171.93701" fill-rule="evenodd"/><path stroke="#595959" stroke-width="1.0" stroke-linejoin="round" stroke-linecap="butt" d="m392.33817 423.1873l-152.74458 -167.50356" fill-rule="evenodd"/><path fill="#595959" stroke="#595959" stroke-width="1.0" stroke-linecap="butt" d="m240.81407 254.57079l-4.2782593 -2.2403107l1.8372955 4.4661865z" fill-rule="evenodd"/><path fill="#000000" fill-opacity="0.0" d="m215.90552 201.14436l169.38583 0" fill-rule="evenodd"/><path stroke="#595959" stroke-width="1.0" stroke-linejoin="round" stroke-linecap="butt" d="m215.90553 201.14436l163.38582 0" fill-rule="evenodd"/><path fill="#595959" stroke="#595959" stroke-width="1.0" stroke-linecap="butt" d="m379.29135 202.7961l4.538086 -1.6517334l-4.538086 -1.6517334z" fill-rule="evenodd"/><path fill="#000000" fill-opacity="0.0" d="m480.00806 201.14436l284.37793 -0.34646606" fill-rule="evenodd"/><path stroke="#595959" stroke-width="1.0" stroke-linejoin="round" stroke-linecap="butt" d="m480.00803 201.14436l278.37796 -0.3391571" fill-rule="evenodd"/><path fill="#595959" stroke="#595959" stroke-width="1.0" stroke-linecap="butt" d="m758.388 202.45694l4.536072 -1.6572571l-4.5401 -1.6462097z" fill-rule="evenodd"/><path fill="#000000" fill-opacity="0.0" d="m90.4397 302.1858l65.732285 0l0 38.771637l-65.732285 0z" fill-rule="evenodd"/><path fill="#339933" d="m102.22095 316.40515l0 3.59375q0.59375 -0.375 1.1875 -0.5625q0.609375 -0.203125 1.234375 -0.203125q1.65625 0 2.8125 1.15625q1.15625 1.140625 1.15625 2.765625q0 1.5625 -1.109375 2.609375q-1.09375 1.046875 -2.890625 1.046875q-0.640625 0 -1.234375 -0.171875q-0.59375 -0.171875 -1.15625 -0.484375l0 0.390625l-1.875 0q-0.578125 0 -0.828125 -0.21875q-0.25 -0.234375 -0.25 -0.59375q0 -0.34375 0.25 -0.5625q0.265625 -0.234375 0.828125 -0.234375l0.28125 0l0 -6.921875l-0.28125 0q-0.578125 0 -0.828125 -0.21875q-0.25 -0.234375 -0.25 -0.59375q0 -0.34375 0.25 -0.5625q0.25 -0.234375 0.828125 -0.234375l1.875 0zm4.796875 6.796875q0 -0.984375 -0.703125 -1.671875q-0.6875 -0.6875 -1.703125 -0.6875q-1.0 0 -1.703125 0.6875q-0.6875 0.6875 -0.6875 1.65625q0 0.875 0.625 1.453125q0.625 0.5625 1.765625 0.5625q1.140625 0 1.765625 -0.5625q0.640625 -0.578125 0.640625 -1.4375zm6.4921875 -3.75l0 1.0q1.015625 -0.734375 1.59375 -0.96875q0.578125 -0.25 1.09375 -0.25q0.78125 0 1.515625 0.578125q0.5 0.390625 0.5 0.796875q0 0.34375 -0.25 0.59375q-0.234375 0.234375 -0.5625 0.234375q-0.296875 0 -0.625 -0.296875q-0.328125 -0.296875 -0.59375 -0.296875q-0.328125 0 -1.0 0.421875q-0.671875 0.421875 -1.671875 1.265625l0 2.40625l2.28125 0q0.578125 0 0.828125 0.234375q0.25 0.21875 0.25 0.578125q0 0.34375 -0.25 0.578125q-0.25 0.21875 -0.828125 0.21875l-4.828125 0q-0.578125 0 -0.828125 -0.21875q-0.25 -0.234375 -0.25 -0.59375q0 -0.34375 0.25 -0.5625q0.25 -0.234375 0.828125 -0.234375l0.953125 0l0 -3.890625l-0.578125 0q-0.578125 0 -0.828125 -0.21875q-0.25 -0.21875 -0.25 -0.578125q0 -0.359375 0.25 -0.578125q0.25 -0.21875 0.828125 -0.21875l2.171875 0z" fill-rule="nonzero"/><path fill="#000000" fill-opacity="0.0" d="m274.82443 448.979l43.527557 0l0 38.771667l-43.527557 0z" fill-rule="evenodd"/><path fill="#339933" d="m286.60568 463.19836l0 3.59375q0.59375 -0.375 1.1875 -0.5625q0.609375 -0.203125 1.234375 -0.203125q1.65625 0 2.8125 1.15625q1.15625 1.140625 1.15625 2.765625q0 1.5625 -1.109375 2.609375q-1.09375 1.046875 -2.890625 1.046875q-0.640625 0 -1.234375 -0.171875q-0.59375 -0.171875 -1.15625 -0.484375l0 0.390625l-1.875 0q-0.578125 0 -0.828125 -0.21875q-0.25 -0.234375 -0.25 -0.59375q0 -0.34375 0.25 -0.5625q0.265625 -0.234375 0.828125 -0.234375l0.28125 0l0 -6.921875l-0.28125 0q-0.578125 0 -0.828125 -0.21875q-0.25 -0.234375 -0.25 -0.59375q0 -0.34375 0.25 -0.5625q0.25 -0.234375 0.828125 -0.234375l1.875 0zm4.796875 6.796875q0 -0.984375 -0.703125 -1.671875q-0.6875 -0.6875 -1.703125 -0.6875q-1.0 0 -1.703125 0.6875q-0.6875 0.6875 -0.6875 1.65625q0 0.875 0.625 1.453125q0.625 0.5625 1.765625 0.5625q1.140625 0 1.765625 -0.5625q0.640625 -0.578125 0.640625 -1.4375zm6.4921875 -3.75l0 1.0q1.015625 -0.734375 1.59375 -0.96875q0.578125 -0.25 1.09375 -0.25q0.78125 0 1.515625 0.578125q0.5 0.390625 0.5 0.796875q0 0.34375 -0.25 0.59375q-0.234375 0.234375 -0.5625 0.234375q-0.296875 0 -0.625 -0.296875q-0.328125 -0.296875 -0.59375 -0.296875q-0.328125 0 -1.0 0.421875q-0.671875 0.421875 -1.671875 1.265625l0 2.40625l2.28125 0q0.578125 0 0.828125 0.234375q0.25 0.21875 0.25 0.578125q0 0.34375 -0.25 0.578125q-0.25 0.21875 -0.828125 0.21875l-4.828125 0q-0.578125 0 -0.828125 -0.21875q-0.25 -0.234375 -0.25 -0.59375q0 -0.34375 0.25 -0.5625q0.25 -0.234375 0.828125 -0.234375l0.953125 0l0 -3.890625l-0.578125 0q-0.578125 0 -0.828125 -0.21875q-0.25 -0.21875 -0.25 -0.578125q0 -0.359375 0.25 -0.578125q0.25 -0.21875 0.828125 -0.21875l2.171875 0z" fill-rule="nonzero"/><path fill="#000000" fill-opacity="0.0" d="m326.6073 296.96167l65.73227 0l0 38.771667l-65.73227 0z" fill-rule="evenodd"/><path fill="#339933" d="m338.38855 311.18106l0 3.59375q0.59375 -0.375 1.1875 -0.5625q0.609375 -0.203125 1.234375 -0.203125q1.65625 0 2.8125 1.15625q1.15625 1.140625 1.15625 2.765625q0 1.5625 -1.109375 2.609375q-1.09375 1.046875 -2.890625 1.046875q-0.640625 0 -1.234375 -0.171875q-0.59375 -0.171875 -1.15625 -0.484375l0 0.390625l-1.875 0q-0.578125 0 -0.828125 -0.21875q-0.25 -0.234375 -0.25 -0.59375q0 -0.34375 0.25 -0.5625q0.265625 -0.234375 0.828125 -0.234375l0.28125 0l0 -6.921875l-0.28125 0q-0.578125 0 -0.828125 -0.21875q-0.25 -0.234375 -0.25 -0.59375q0 -0.34375 0.25 -0.5625q0.25 -0.234375 0.828125 -0.234375l1.875 0zm4.796875 6.796875q0 -0.984375 -0.703125 -1.671875q-0.6875 -0.6875 -1.703125 -0.6875q-1.0 0 -1.703125 0.6875q-0.6875 0.6875 -0.6875 1.65625q0 0.875 0.625 1.453125q0.625 0.5625 1.765625 0.5625q1.140625 0 1.765625 -0.5625q0.640625 -0.578125 0.640625 -1.4375zm6.4921875 -3.75l0 1.0q1.015625 -0.734375 1.59375 -0.96875q0.578125 -0.25 1.09375 -0.25q0.78125 0 1.515625 0.578125q0.5 0.390625 0.5 0.796875q0 0.34375 -0.25 0.59375q-0.234375 0.234375 -0.5625 0.234375q-0.296875 0 -0.625 -0.296875q-0.328125 -0.296875 -0.59375 -0.296875q-0.328125 0 -1.0 0.421875q-0.671875 0.421875 -1.671875 1.265625l0 2.40625l2.28125 0q0.578125 0 0.828125 0.234375q0.25 0.21875 0.25 0.578125q0 0.34375 -0.25 0.578125q-0.25 0.21875 -0.828125 0.21875l-4.828125 0q-0.578125 0 -0.828125 -0.21875q-0.25 -0.234375 -0.25 -0.59375q0 -0.34375 0.25 -0.5625q0.25 -0.234375 0.828125 -0.234375l0.953125 0l0 -3.890625l-0.578125 0q-0.578125 0 -0.828125 -0.21875q-0.25 -0.21875 -0.25 -0.578125q0 -0.359375 0.25 -0.578125q0.25 -0.21875 0.828125 -0.21875l2.171875 0z" fill-rule="nonzero"/><path fill="#000000" fill-opacity="0.0" d="m101.179855 112.177315l65.732285 0l0 38.77166l-65.732285 0z" fill-rule="evenodd"/><path fill="#339933" d="m112.961105 126.39669l0 3.5937424q0.59375 -0.375 1.1875 -0.5625q0.609375 -0.203125 1.234375 -0.203125q1.65625 0 2.8125 1.15625q1.15625 1.140625 1.15625 2.765625q0 1.5625 -1.109375 2.609375q-1.09375 1.046875 -2.890625 1.046875q-0.640625 0 -1.234375 -0.171875q-0.59375 -0.171875 -1.15625 -0.484375l0 0.390625l-1.875 0q-0.578125 0 -0.828125 -0.21875q-0.25 -0.234375 -0.25 -0.59375q0 -0.34375 0.25 -0.5625q0.265625 -0.234375 0.828125 -0.234375l0.28125 0l0 -6.921875l-0.28125 0q-0.578125 0 -0.828125 -0.21874237q-0.25 -0.234375 -0.25 -0.59375q0 -0.34375 0.25 -0.5625q0.25 -0.234375 0.828125 -0.234375l1.875 0zm4.796875 6.7968674q0 -0.984375 -0.703125 -1.671875q-0.6875 -0.6875 -1.703125 -0.6875q-1.0 0 -1.703125 0.6875q-0.6875 0.6875 -0.6875 1.65625q0 0.875 0.625 1.453125q0.625 0.5625 1.765625 0.5625q1.140625 0 1.765625 -0.5625q0.640625 -0.578125 0.640625 -1.4375zm6.4921875 -3.75l0 1.0q1.015625 -0.734375 1.59375 -0.96875q0.578125 -0.25 1.09375 -0.25q0.78125 0 1.515625 0.578125q0.5 0.390625 0.5 0.796875q0 0.34375 -0.25 0.59375q-0.234375 0.234375 -0.5625 0.234375q-0.296875 0 -0.625 -0.296875q-0.328125 -0.296875 -0.59375 -0.296875q-0.328125 0 -1.0 0.421875q-0.671875 0.421875 -1.671875 1.265625l0 2.40625l2.28125 0q0.578125 0 0.828125 0.234375q0.25 0.21875 0.25 0.578125q0 0.34375 -0.25 0.578125q-0.25 0.21875 -0.828125 0.21875l-4.828125 0q-0.578125 0 -0.828125 -0.21875q-0.25 -0.234375 -0.25 -0.59375q0 -0.34375 0.25 -0.5625q0.25 -0.234375 0.828125 -0.234375l0.953125 0l0 -3.890625l-0.578125 0q-0.578125 0 -0.828125 -0.21875q-0.25 -0.21875 -0.25 -0.578125q0 -0.359375 0.25 -0.578125q0.25 -0.21875 0.828125 -0.21875l2.171875 0z" fill-rule="nonzero"/><path fill="#000000" fill-opacity="0.0" d="m274.82355 155.20961l65.7323 0l0 38.771667l-65.7323 0z" fill-rule="evenodd"/><path fill="#339933" d="m286.6048 169.42899l0 3.59375q0.59375 -0.375 1.1875 -0.5625q0.609375 -0.203125 1.234375 -0.203125q1.65625 0 2.8125 1.15625q1.15625 1.140625 1.15625 2.765625q0 1.5625 -1.109375 2.609375q-1.09375 1.046875 -2.890625 1.046875q-0.640625 0 -1.234375 -0.171875q-0.59375 -0.171875 -1.15625 -0.484375l0 0.390625l-1.875 0q-0.578125 0 -0.828125 -0.21875q-0.25 -0.234375 -0.25 -0.59375q0 -0.34375 0.25 -0.5625q0.265625 -0.234375 0.828125 -0.234375l0.28125 0l0 -6.921875l-0.28125 0q-0.578125 0 -0.828125 -0.21875q-0.25 -0.234375 -0.25 -0.59375q0 -0.34375 0.25 -0.5625q0.25 -0.234375 0.828125 -0.234375l1.875 0zm4.796875 6.796875q0 -0.984375 -0.703125 -1.671875q-0.6875 -0.6875 -1.703125 -0.6875q-1.0 0 -1.703125 0.6875q-0.6875 0.6875 -0.6875 1.65625q0 0.875 0.625 1.453125q0.625 0.5625 1.765625 0.5625q1.140625 0 1.765625 -0.5625q0.640625 -0.578125 0.640625 -1.4375zm6.4921875 -3.75l0 1.0q1.015625 -0.734375 1.59375 -0.96875q0.578125 -0.25 1.09375 -0.25q0.78125 0 1.515625 0.578125q0.5 0.390625 0.5 0.796875q0 0.34375 -0.25 0.59375q-0.234375 0.234375 -0.5625 0.234375q-0.296875 0 -0.625 -0.296875q-0.328125 -0.296875 -0.59375 -0.296875q-0.328125 0 -1.0 0.421875q-0.671875 0.421875 -1.671875 1.265625l0 2.40625l2.28125 0q0.578125 0 0.828125 0.234375q0.25 0.21875 0.25 0.578125q0 0.34375 -0.25 0.578125q-0.25 0.21875 -0.828125 0.21875l-4.828125 0q-0.578125 0 -0.828125 -0.21875q-0.25 -0.234375 -0.25 -0.59375q0 -0.34375 0.25 -0.5625q0.25 -0.234375 0.828125 -0.234375l0.953125 0l0 -3.890625l-0.578125 0q-0.578125 0 -0.828125 -0.21875q-0.25 -0.21875 -0.25 -0.578125q0 -0.359375 0.25 -0.578125q0.25 -0.21875 0.828125 -0.21875l2.171875 0z" fill-rule="nonzero"/><path fill="#000000" fill-opacity="0.0" d="m589.33093 155.20961l65.7323 0l0 38.771667l-65.7323 0z" fill-rule="evenodd"/><path fill="#339933" d="m601.1122 169.42899l0 3.59375q0.59375 -0.375 1.1875 -0.5625q0.609375 -0.203125 1.234375 -0.203125q1.65625 0 2.8125 1.15625q1.15625 1.140625 1.15625 2.765625q0 1.5625 -1.109375 2.609375q-1.09375 1.046875 -2.890625 1.046875q-0.640625 0 -1.234375 -0.171875q-0.59375 -0.171875 -1.15625 -0.484375l0 0.390625l-1.875 0q-0.578125 0 -0.828125 -0.21875q-0.25 -0.234375 -0.25 -0.59375q0 -0.34375 0.25 -0.5625q0.265625 -0.234375 0.828125 -0.234375l0.28125 0l0 -6.921875l-0.28125 0q-0.578125 0 -0.828125 -0.21875q-0.25 -0.234375 -0.25 -0.59375q0 -0.34375 0.25 -0.5625q0.25 -0.234375 0.828125 -0.234375l1.875 0zm4.796875 6.796875q0 -0.984375 -0.703125 -1.671875q-0.6875 -0.6875 -1.703125 -0.6875q-1.0 0 -1.703125 0.6875q-0.6875 0.6875 -0.6875 1.65625q0 0.875 0.625 1.453125q0.625 0.5625 1.765625 0.5625q1.140625 0 1.765625 -0.5625q0.640625 -0.578125 0.640625 -1.4375zm6.4921875 -3.75l0 1.0q1.015625 -0.734375 1.59375 -0.96875q0.578125 -0.25 1.09375 -0.25q0.78125 0 1.515625 0.578125q0.5 0.390625 0.5 0.796875q0 0.34375 -0.25 0.59375q-0.234375 0.234375 -0.5625 0.234375q-0.296875 0 -0.625 -0.296875q-0.328125 -0.296875 -0.59375 -0.296875q-0.328125 0 -1.0 0.421875q-0.671875 0.421875 -1.671875 1.265625l0 2.40625l2.28125 0q0.578125 0 0.828125 0.234375q0.25 0.21875 0.25 0.578125q0 0.34375 -0.25 0.578125q-0.25 0.21875 -0.828125 0.21875l-4.828125 0q-0.578125 0 -0.828125 -0.21875q-0.25 -0.234375 -0.25 -0.59375q0 -0.34375 0.25 -0.5625q0.25 -0.234375 0.828125 -0.234375l0.953125 0l0 -3.890625l-0.578125 0q-0.578125 0 -0.828125 -0.21875q-0.25 -0.21875 -0.25 -0.578125q0 -0.359375 0.25 -0.578125q0.25 -0.21875 0.828125 -0.21875l2.171875 0z" fill-rule="nonzero"/><path fill="#ffffff" d="m229.04349 367.02756l0 0c0 9.317139 20.333435 17.450806 49.409454 19.764465l0 -8.161438l16.322815 16.961945l-16.322815 15.683716l0 -8.161407l0 0c-29.07602 -2.3136597 -49.409454 -10.447296 -49.409454 -19.764435z" fill-rule="evenodd"/><path fill="#cbcbcb" d="m294.77576 362.94684l0 0c-26.136597 0 -49.789978 4.806549 -60.244614 12.242126l0 0c-8.869064 -6.307892 -6.8954163 -13.578583 5.249054 -19.336884c12.14447 -5.758301 32.82292 -9.228058 54.99556 -9.228058z" fill-rule="evenodd"/><path fill="#000000" fill-opacity="0.0" d="m229.04349 367.02756l0 0c0 9.317139 20.333435 17.450806 49.409454 19.764465l0 -8.161438l16.322815 16.961945l-16.322815 15.683716l0 -8.161407l0 0c-29.07602 -2.3136597 -49.409454 -10.447296 -49.409454 -19.764435l0 -16.322845l0 0c0 -11.268555 29.429352 -20.403534 65.73227 -20.403534l0 16.322815l0 0c-26.136597 0 -49.789978 4.806549 -60.244614 12.242126" fill-rule="evenodd"/><path stroke="#000000" stroke-width="1.0" stroke-linejoin="round" stroke-linecap="butt" d="m229.04349 367.02756l0 0c0 9.317139 20.333435 17.450806 49.409454 19.764465l0 -8.161438l16.322815 16.961945l-16.322815 15.683716l0 -8.161407l0 0c-29.07602 -2.3136597 -49.409454 -10.447296 -49.409454 -19.764435l0 -16.322845l0 0c0 -11.268555 29.429352 -20.403534 65.73227 -20.403534l0 16.322815l0 0c-26.136597 0 -49.789978 4.806549 -60.244614 12.242126" fill-rule="evenodd"/><path fill="#000000" fill-opacity="0.0" d="m689.1707 221.58037l276.44092 0l0 38.771652l-276.44092 0z" fill-rule="evenodd"/><path fill="#339933" d="m704.4207 245.94037l0 -0.375q-0.609375 0.3125 -1.34375 0.46875q-0.71875 0.171875 -1.3125 0.171875q-1.28125 0 -2.09375 -0.6875q-0.796875 -0.6875 -0.796875 -1.515625q0 -1.0 1.015625 -1.859375q1.03125 -0.875 2.84375 -0.875q0.734375 0 1.6875 0.15625l0 -0.375q0 -0.359375 -0.3125 -0.578125q-0.3125 -0.234375 -1.171875 -0.234375q-0.71875 0 -1.84375 0.28125q-0.421875 0.09375 -0.65625 0.09375q-0.328125 0 -0.546875 -0.21875q-0.21875 -0.234375 -0.21875 -0.59375q0 -0.203125 0.078125 -0.34375q0.078125 -0.15625 0.21875 -0.25q0.140625 -0.09375 0.578125 -0.21875q0.59375 -0.15625 1.203125 -0.25q0.625 -0.109375 1.125 -0.109375q1.5 0 2.3125 0.65625q0.828125 0.640625 0.828125 1.75l0 3.296875l0.28125 0q0.578125 0 0.8125 0.234375q0.25 0.21875 0.25 0.578125q0 0.34375 -0.25 0.578125q-0.234375 0.21875 -0.8125 0.21875l-1.875 0zm0 -2.875q-0.96875 -0.1875 -1.78125 -0.1875q-0.96875 0 -1.671875 0.484375q-0.4375 0.296875 -0.4375 0.609375q0 0.234375 0.203125 0.375q0.390625 0.25 1.078125 0.25q0.578125 0 1.296875 -0.21875q0.734375 -0.234375 1.3125 -0.625l0 -0.6875zm9.8828125 -2.34375q-0.390625 -0.25 -0.828125 -0.359375q-0.421875 -0.125 -0.890625 -0.125q-0.921875 0 -1.46875 0.296875q-0.25 0.140625 -0.25 0.296875q0 0.171875 0.328125 0.34375q0.25 0.125 1.125 0.25q1.59375 0.21875 2.21875 0.4375q0.8125 0.28125 1.25 0.859375q0.453125 0.5625 0.453125 1.203125q0 0.859375 -0.75 1.4375q-1.09375 0.84375 -2.828125 0.84375q-0.6875 0 -1.28125 -0.125q-0.59375 -0.125 -1.078125 -0.359375q-0.125 0.09375 -0.265625 0.15625q-0.125 0.046875 -0.265625 0.046875q-0.375 0 -0.59375 -0.234375q-0.21875 -0.25 -0.21875 -0.828125l0 -0.546875q0 -0.578125 0.21875 -0.8125q0.21875 -0.25 0.578125 -0.25q0.296875 0 0.484375 0.15625q0.203125 0.15625 0.3125 0.546875q0.359375 0.3125 0.875 0.484375q0.515625 0.15625 1.1875 0.15625q1.109375 0 1.71875 -0.34375q0.28125 -0.171875 0.28125 -0.359375q0 -0.3125 -0.40625 -0.515625q-0.421875 -0.203125 -1.71875 -0.34375q-1.921875 -0.203125 -2.578125 -0.78125q-0.640625 -0.578125 -0.640625 -1.40625q0 -0.859375 0.71875 -1.4375q0.984375 -0.78125 2.578125 -0.78125q0.5625 0 1.0625 0.109375q0.515625 0.109375 0.984375 0.328125q0.15625 -0.109375 0.28125 -0.15625q0.125 -0.0625 0.234375 -0.0625q0.328125 0 0.546875 0.25q0.21875 0.234375 0.21875 0.8125l0 0.390625q0 0.53125 -0.125 0.71875q-0.25 0.359375 -0.671875 0.359375q-0.296875 0 -0.515625 -0.171875q-0.21875 -0.1875 -0.28125 -0.484375zm9.6015625 0q-0.390625 -0.25 -0.828125 -0.359375q-0.421875 -0.125 -0.890625 -0.125q-0.921875 0 -1.46875 0.296875q-0.25 0.140625 -0.25 0.296875q0 0.171875 0.328125 0.34375q0.25 0.125 1.125 0.25q1.59375 0.21875 2.21875 0.4375q0.8125 0.28125 1.25 0.859375q0.453125 0.5625 0.453125 1.203125q0 0.859375 -0.75 1.4375q-1.09375 0.84375 -2.828125 0.84375q-0.6875 0 -1.28125 -0.125q-0.59375 -0.125 -1.078125 -0.359375q-0.125 0.09375 -0.265625 0.15625q-0.125 0.046875 -0.265625 0.046875q-0.375 0 -0.59375 -0.234375q-0.21875 -0.25 -0.21875 -0.828125l0 -0.546875q0 -0.578125 0.21875 -0.8125q0.21875 -0.25 0.578125 -0.25q0.296875 0 0.484375 0.15625q0.203125 0.15625 0.3125 0.546875q0.359375 0.3125 0.875 0.484375q0.515625 0.15625 1.1875 0.15625q1.109375 0 1.71875 -0.34375q0.28125 -0.171875 0.28125 -0.359375q0 -0.3125 -0.40625 -0.515625q-0.421875 -0.203125 -1.71875 -0.34375q-1.921875 -0.203125 -2.578125 -0.78125q-0.640625 -0.578125 -0.640625 -1.40625q0 -0.859375 0.71875 -1.4375q0.984375 -0.78125 2.578125 -0.78125q0.5625 0 1.0625 0.109375q0.515625 0.109375 0.984375 0.328125q0.15625 -0.109375 0.28125 -0.15625q0.125 -0.0625 0.234375 -0.0625q0.328125 0 0.546875 0.25q0.21875 0.234375 0.21875 0.8125l0 0.390625q0 0.53125 -0.125 0.71875q-0.25 0.359375 -0.671875 0.359375q-0.296875 0 -0.515625 -0.171875q-0.21875 -0.1875 -0.28125 -0.484375zm11.8984375 2.484375l-6.578125 0q0.25 0.625 0.890625 1.015625q0.640625 0.375 1.71875 0.375q0.890625 0 2.375 -0.390625q0.609375 -0.15625 0.84375 -0.15625q0.3125 0 0.53125 0.234375q0.21875 0.21875 0.21875 0.5625q0 0.3125 -0.234375 0.53125q-0.3125 0.296875 -1.53125 0.5625q-1.203125 0.265625 -2.3125 0.265625q-1.921875 0 -3.078125 -1.09375q-1.15625 -1.09375 -1.15625 -2.671875q0 -1.6875 1.25 -2.75q1.25 -1.0625 2.875 -1.0625q0.96875 0 1.78125 0.34375q0.828125 0.34375 1.21875 0.75q0.5625 0.578125 0.9375 1.421875q0.25 0.59375 0.25 1.375l0 0.6875zm-1.78125 -1.609375q-0.359375 -0.6875 -0.953125 -1.015625q-0.59375 -0.34375 -1.421875 -0.34375q-0.8125 0 -1.40625 0.34375q-0.59375 0.328125 -0.96875 1.015625l4.75 0zm7.0234375 -2.75l0 1.0q1.015625 -0.734375 1.59375 -0.96875q0.578125 -0.25 1.09375 -0.25q0.78125 0 1.515625 0.578125q0.5 0.390625 0.5 0.796875q0 0.34375 -0.25 0.59375q-0.234375 0.234375 -0.5625 0.234375q-0.296875 0 -0.625 -0.296875q-0.328125 -0.296875 -0.59375 -0.296875q-0.328125 0 -1.0 0.421875q-0.671875 0.421875 -1.671875 1.265625l0 2.40625l2.28125 0q0.578125 0 0.828125 0.234375q0.25 0.21875 0.25 0.578125q0 0.34375 -0.25 0.578125q-0.25 0.21875 -0.828125 0.21875l-4.828125 0q-0.578125 0 -0.828125 -0.21875q-0.25 -0.234375 -0.25 -0.59375q0 -0.34375 0.25 -0.5625q0.25 -0.234375 0.828125 -0.234375l0.953125 0l0 -3.890625l-0.578125 0q-0.578125 0 -0.828125 -0.21875q-0.25 -0.21875 -0.25 -0.578125q0 -0.359375 0.25 -0.578125q0.25 -0.21875 0.828125 -0.21875l2.171875 0zm9.5390625 1.59375l0 3.21875q0 0.515625 0.21875 0.671875q0.328125 0.265625 1.171875 0.265625q1.21875 0 2.265625 -0.53125q0.390625 -0.203125 0.625 -0.203125q0.3125 0 0.53125 0.234375q0.234375 0.234375 0.234375 0.578125q0 0.3125 -0.25 0.53125q-0.375 0.375 -1.515625 0.6875q-1.125 0.3125 -1.890625 0.3125q-1.5 0 -2.25 -0.640625q-0.734375 -0.65625 -0.734375 -1.59375l0 -3.53125l-0.578125 0q-0.578125 0 -0.828125 -0.21875q-0.25 -0.21875 -0.25 -0.578125q0 -0.359375 0.25 -0.578125q0.25 -0.21875 0.828125 -0.21875l0.578125 0l0 -1.453125q0 -0.578125 0.21875 -0.8125q0.21875 -0.25 0.578125 -0.25q0.359375 0 0.578125 0.25q0.21875 0.234375 0.21875 0.8125l0 1.453125l2.96875 0q0.578125 0 0.8125 0.21875q0.25 0.21875 0.25 0.578125q0 0.359375 -0.25 0.578125q-0.234375 0.21875 -0.8125 0.21875l-2.96875 0zm9.4296875 1.609375q0 -1.375 0.453125 -2.765625q0.328125 -1.03125 1.03125 -2.296875q0.515625 -0.90625 0.75 -1.109375q0.25 -0.21875 0.546875 -0.21875q0.34375 0 0.578125 0.234375q0.234375 0.234375 0.234375 0.5625q0 0.234375 -0.1875 0.546875q-0.84375 1.375 -1.234375 2.59375q-0.390625 1.203125 -0.390625 2.453125q0 1.25 0.390625 2.46875q0.390625 1.203125 1.234375 2.59375q0.1875 0.296875 0.1875 0.53125q0 0.328125 -0.234375 0.5625q-0.234375 0.234375 -0.578125 0.234375q-0.296875 0 -0.515625 -0.1875q-0.3125 -0.265625 -0.828125 -1.21875q-0.734375 -1.390625 -1.015625 -2.296875q-0.421875 -1.375 -0.421875 -2.6875zm12.6640625 -2.921875q0.296875 -0.265625 0.59375 -0.265625q0.34375 0 0.5625 0.25q0.234375 0.234375 0.234375 0.8125l0 1.03125q0 0.578125 -0.234375 0.828125q-0.21875 0.234375 -0.578125 0.234375q-0.328125 0 -0.546875 -0.1875q-0.171875 -0.140625 -0.265625 -0.578125q-0.09375 -0.4375 -0.453125 -0.640625q-0.625 -0.375 -1.609375 -0.375q-1.140625 0 -1.828125 0.671875q-0.671875 0.65625 -0.671875 1.671875q0 0.9375 0.65625 1.484375q0.65625 0.53125 2.171875 0.53125q1.0 0 1.640625 -0.203125q0.375 -0.125 0.703125 -0.421875q0.34375 -0.296875 0.609375 -0.296875q0.328125 0 0.5625 0.25q0.25 0.234375 0.25 0.5625q0 0.53125 -0.734375 1.0q-1.078125 0.71875 -3.15625 0.71875q-1.859375 0 -2.90625 -0.78125q-1.40625 -1.03125 -1.40625 -2.84375q0 -1.703125 1.140625 -2.828125q1.140625 -1.125 2.984375 -1.125q0.65625 0 1.21875 0.125q0.578125 0.125 1.0625 0.375zm11.2734375 3.390625q0 0.921875 -0.515625 1.796875q-0.515625 0.859375 -1.53125 1.375q-1.0 0.515625 -2.109375 0.515625q-1.09375 0 -2.09375 -0.5q-1.0 -0.515625 -1.53125 -1.375q-0.515625 -0.875 -0.515625 -1.828125q0 -0.953125 0.53125 -1.875q0.53125 -0.9375 1.53125 -1.46875q1.0 -0.53125 2.078125 -0.53125q1.09375 0 2.109375 0.546875q1.015625 0.546875 1.53125 1.46875q0.515625 0.90625 0.515625 1.875zm-1.609375 0.015625q0 -0.78125 -0.546875 -1.421875q-0.765625 -0.875 -2.0 -0.875q-1.078125 0 -1.8125 0.703125q-0.71875 0.6875 -0.71875 1.59375q0 0.75 0.734375 1.40625q0.734375 0.65625 1.796875 0.65625q1.078125 0 1.8125 -0.65625q0.734375 -0.65625 0.734375 -1.40625zm5.4296875 -3.6875l0 0.53125q0.4375 -0.375 0.953125 -0.5625q0.53125 -0.1875 1.15625 -0.1875q1.421875 0 2.25 0.890625q0.65625 0.703125 0.65625 1.84375l0 2.96875q0.5 0 0.734375 0.234375q0.25 0.21875 0.25 0.578125q0 0.34375 -0.25 0.578125q-0.234375 0.21875 -0.8125 0.21875l-1.453125 0q-0.578125 0 -0.828125 -0.21875q-0.234375 -0.234375 -0.234375 -0.59375q0 -0.34375 0.234375 -0.5625q0.25 -0.234375 0.75 -0.234375l0 -3.015625q0 -0.53125 -0.28125 -0.765625q-0.359375 -0.3125 -1.09375 -0.3125q-0.5625 0 -0.984375 0.21875q-0.40625 0.203125 -1.046875 0.90625l0 2.96875q0.609375 0 0.796875 0.125q0.375 0.234375 0.375 0.6875q0 0.34375 -0.25 0.578125q-0.234375 0.21875 -0.8125 0.21875l-1.828125 0q-0.578125 0 -0.828125 -0.21875q-0.234375 -0.234375 -0.234375 -0.59375q0 -0.4375 0.375 -0.671875q0.1875 -0.125 0.796875 -0.125l0 -3.890625q-0.5 0 -0.75 -0.21875q-0.234375 -0.234375 -0.234375 -0.578125q0 -0.359375 0.234375 -0.578125q0.25 -0.21875 0.828125 -0.21875l1.53125 0zm14.8984375 -3.046875l0 8.53125l0.265625 0q0.578125 0 0.828125 0.234375q0.25 0.21875 0.25 0.578125q0 0.34375 -0.25 0.578125q-0.25 0.21875 -0.828125 0.21875l-1.875 0l0 -0.390625q-0.546875 0.3125 -1.140625 0.484375q-0.59375 0.171875 -1.234375 0.171875q-1.8125 0 -2.921875 -1.046875q-1.09375 -1.046875 -1.09375 -2.609375q0 -1.625 1.15625 -2.765625q1.15625 -1.15625 2.828125 -1.15625q0.625 0 1.21875 0.203125q0.609375 0.1875 1.1875 0.5625l0 -1.984375l-0.265625 0q-0.578125 0 -0.828125 -0.21875q-0.25 -0.234375 -0.25 -0.578125q0 -0.359375 0.25 -0.578125q0.25 -0.234375 0.828125 -0.234375l1.875 0zm-1.609375 6.796875q0 -0.984375 -0.703125 -1.671875q-0.6875 -0.6875 -1.6875 -0.6875q-1.0 0 -1.703125 0.6875q-0.6875 0.6875 -0.6875 1.65625q0 0.875 0.625 1.453125q0.625 0.5625 1.765625 0.5625q1.125 0 1.75 -0.5625q0.640625 -0.578125 0.640625 -1.4375zm8.2109375 -0.546875q0 1.359375 -0.453125 2.765625q-0.328125 1.03125 -1.03125 2.296875q-0.515625 0.90625 -0.765625 1.109375q-0.234375 0.21875 -0.53125 0.21875q-0.34375 0 -0.578125 -0.234375q-0.234375 -0.234375 -0.234375 -0.5625q0 -0.234375 0.1875 -0.53125q0.84375 -1.390625 1.234375 -2.59375q0.390625 -1.21875 0.390625 -2.46875q0 -1.25 -0.390625 -2.453125q-0.390625 -1.21875 -1.234375 -2.59375q-0.1875 -0.3125 -0.1875 -0.546875q0 -0.328125 0.234375 -0.5625q0.234375 -0.234375 0.578125 -0.234375q0.296875 0 0.515625 0.1875q0.3125 0.265625 0.828125 1.234375q0.734375 1.375 1.015625 2.265625q0.421875 1.390625 0.421875 2.703125z" fill-rule="nonzero"/></g></svg>